G75*
%MOIN*%
%OFA0B0*%
%FSLAX24Y24*%
%IPPOS*%
%LPD*%
%AMOC8*
5,1,8,0,0,1.08239X$1,22.5*
%
%ADD10C,0.0000*%
%ADD11C,0.1310*%
%ADD12R,0.1181X0.0354*%
%ADD13C,0.0376*%
%ADD14C,0.0160*%
%ADD15C,0.0472*%
%ADD16C,0.0100*%
%ADD17C,0.0120*%
%ADD18C,0.0240*%
D10*
X000872Y000527D02*
X026208Y000527D01*
X026208Y000528D02*
X026246Y000530D01*
X026283Y000535D01*
X026320Y000545D01*
X026356Y000557D01*
X026390Y000574D01*
X026422Y000593D01*
X026453Y000616D01*
X026481Y000641D01*
X026506Y000669D01*
X026529Y000700D01*
X026548Y000732D01*
X026565Y000766D01*
X026577Y000802D01*
X026587Y000839D01*
X026592Y000876D01*
X026594Y000914D01*
X026594Y008399D01*
X026592Y008438D01*
X026586Y008476D01*
X026577Y008514D01*
X026564Y008551D01*
X026547Y008586D01*
X026527Y008619D01*
X026504Y008650D01*
X026478Y008679D01*
X026449Y008705D01*
X026418Y008728D01*
X026385Y008748D01*
X026350Y008765D01*
X026313Y008778D01*
X026275Y008787D01*
X026237Y008793D01*
X026198Y008795D01*
X000984Y008795D01*
X000949Y008793D01*
X000915Y008788D01*
X000881Y008779D01*
X000848Y008766D01*
X000817Y008750D01*
X000788Y008731D01*
X000761Y008709D01*
X000736Y008684D01*
X000714Y008657D01*
X000695Y008628D01*
X000679Y008597D01*
X000666Y008564D01*
X000657Y008530D01*
X000652Y008496D01*
X000650Y008461D01*
X000649Y008461D02*
X000649Y000750D01*
X000651Y000721D01*
X000657Y000692D01*
X000666Y000665D01*
X000679Y000639D01*
X000695Y000614D01*
X000714Y000592D01*
X000736Y000573D01*
X000760Y000557D01*
X000787Y000544D01*
X000814Y000535D01*
X000843Y000529D01*
X000872Y000527D01*
X002721Y003795D02*
X002723Y003822D01*
X002729Y003849D01*
X002738Y003875D01*
X002751Y003899D01*
X002767Y003922D01*
X002786Y003941D01*
X002808Y003958D01*
X002832Y003972D01*
X002857Y003982D01*
X002884Y003989D01*
X002911Y003992D01*
X002939Y003991D01*
X002966Y003986D01*
X002992Y003978D01*
X003016Y003966D01*
X003039Y003950D01*
X003060Y003932D01*
X003077Y003911D01*
X003092Y003887D01*
X003103Y003862D01*
X003111Y003836D01*
X003115Y003809D01*
X003115Y003781D01*
X003111Y003754D01*
X003103Y003728D01*
X003092Y003703D01*
X003077Y003679D01*
X003060Y003658D01*
X003039Y003640D01*
X003017Y003624D01*
X002992Y003612D01*
X002966Y003604D01*
X002939Y003599D01*
X002911Y003598D01*
X002884Y003601D01*
X002857Y003608D01*
X002832Y003618D01*
X002808Y003632D01*
X002786Y003649D01*
X002767Y003668D01*
X002751Y003691D01*
X002738Y003715D01*
X002729Y003741D01*
X002723Y003768D01*
X002721Y003795D01*
X002721Y005527D02*
X002723Y005554D01*
X002729Y005581D01*
X002738Y005607D01*
X002751Y005631D01*
X002767Y005654D01*
X002786Y005673D01*
X002808Y005690D01*
X002832Y005704D01*
X002857Y005714D01*
X002884Y005721D01*
X002911Y005724D01*
X002939Y005723D01*
X002966Y005718D01*
X002992Y005710D01*
X003016Y005698D01*
X003039Y005682D01*
X003060Y005664D01*
X003077Y005643D01*
X003092Y005619D01*
X003103Y005594D01*
X003111Y005568D01*
X003115Y005541D01*
X003115Y005513D01*
X003111Y005486D01*
X003103Y005460D01*
X003092Y005435D01*
X003077Y005411D01*
X003060Y005390D01*
X003039Y005372D01*
X003017Y005356D01*
X002992Y005344D01*
X002966Y005336D01*
X002939Y005331D01*
X002911Y005330D01*
X002884Y005333D01*
X002857Y005340D01*
X002832Y005350D01*
X002808Y005364D01*
X002786Y005381D01*
X002767Y005400D01*
X002751Y005423D01*
X002738Y005447D01*
X002729Y005473D01*
X002723Y005500D01*
X002721Y005527D01*
X024452Y005527D02*
X024454Y005554D01*
X024460Y005581D01*
X024469Y005607D01*
X024482Y005631D01*
X024498Y005654D01*
X024517Y005673D01*
X024539Y005690D01*
X024563Y005704D01*
X024588Y005714D01*
X024615Y005721D01*
X024642Y005724D01*
X024670Y005723D01*
X024697Y005718D01*
X024723Y005710D01*
X024747Y005698D01*
X024770Y005682D01*
X024791Y005664D01*
X024808Y005643D01*
X024823Y005619D01*
X024834Y005594D01*
X024842Y005568D01*
X024846Y005541D01*
X024846Y005513D01*
X024842Y005486D01*
X024834Y005460D01*
X024823Y005435D01*
X024808Y005411D01*
X024791Y005390D01*
X024770Y005372D01*
X024748Y005356D01*
X024723Y005344D01*
X024697Y005336D01*
X024670Y005331D01*
X024642Y005330D01*
X024615Y005333D01*
X024588Y005340D01*
X024563Y005350D01*
X024539Y005364D01*
X024517Y005381D01*
X024498Y005400D01*
X024482Y005423D01*
X024469Y005447D01*
X024460Y005473D01*
X024454Y005500D01*
X024452Y005527D01*
X024452Y003795D02*
X024454Y003822D01*
X024460Y003849D01*
X024469Y003875D01*
X024482Y003899D01*
X024498Y003922D01*
X024517Y003941D01*
X024539Y003958D01*
X024563Y003972D01*
X024588Y003982D01*
X024615Y003989D01*
X024642Y003992D01*
X024670Y003991D01*
X024697Y003986D01*
X024723Y003978D01*
X024747Y003966D01*
X024770Y003950D01*
X024791Y003932D01*
X024808Y003911D01*
X024823Y003887D01*
X024834Y003862D01*
X024842Y003836D01*
X024846Y003809D01*
X024846Y003781D01*
X024842Y003754D01*
X024834Y003728D01*
X024823Y003703D01*
X024808Y003679D01*
X024791Y003658D01*
X024770Y003640D01*
X024748Y003624D01*
X024723Y003612D01*
X024697Y003604D01*
X024670Y003599D01*
X024642Y003598D01*
X024615Y003601D01*
X024588Y003608D01*
X024563Y003618D01*
X024539Y003632D01*
X024517Y003649D01*
X024498Y003668D01*
X024482Y003691D01*
X024469Y003715D01*
X024460Y003741D01*
X024454Y003768D01*
X024452Y003795D01*
D11*
X022854Y002076D03*
X022854Y007246D03*
D12*
X021496Y005842D03*
X021496Y005055D03*
X021496Y004268D03*
X021496Y003480D03*
D13*
X020256Y003047D03*
X021673Y002968D03*
X018602Y004228D03*
X020335Y004386D03*
X022461Y004701D03*
X024193Y004701D03*
X022382Y005409D03*
X022854Y005646D03*
X020492Y005724D03*
X020492Y006275D03*
X018602Y006118D03*
X018681Y005646D03*
X017264Y004858D03*
X017342Y003520D03*
X013903Y002606D03*
X013484Y003283D03*
X012511Y003462D03*
X011807Y002606D03*
X009269Y003026D03*
X008163Y002406D03*
X006591Y002397D03*
X006399Y003699D03*
X007603Y003856D03*
X008399Y003981D03*
X009741Y003893D03*
X008399Y004652D03*
X007274Y005152D03*
X005621Y004601D03*
X006274Y004481D03*
X004825Y003777D03*
X011788Y005625D03*
X006749Y006806D03*
X004901Y006905D03*
X018602Y006905D03*
X020413Y007614D03*
D14*
X020572Y007818D02*
X006239Y007818D01*
X006286Y007865D02*
X020525Y007865D01*
X021196Y007195D01*
X021196Y006200D01*
X020859Y006200D01*
X020860Y006202D01*
X020860Y006349D01*
X020804Y006484D01*
X020701Y006588D01*
X020565Y006644D01*
X020419Y006644D01*
X020283Y006588D01*
X020211Y006515D01*
X018712Y006515D01*
X018641Y006486D01*
X018529Y006486D01*
X018394Y006430D01*
X018290Y006327D01*
X018234Y006191D01*
X018234Y006045D01*
X018290Y005909D01*
X018362Y005838D01*
X018313Y005719D01*
X018313Y005572D01*
X018369Y005437D01*
X018472Y005333D01*
X018608Y005277D01*
X018754Y005277D01*
X018890Y005333D01*
X018993Y005437D01*
X019049Y005572D01*
X019049Y005674D01*
X019174Y005799D01*
X020078Y005799D01*
X020124Y005753D01*
X020124Y005651D01*
X020180Y005516D01*
X020283Y005412D01*
X020419Y005356D01*
X020565Y005356D01*
X020701Y005412D01*
X020802Y005514D01*
X020831Y005485D01*
X022015Y005485D01*
X022014Y005483D01*
X022014Y005412D01*
X020831Y005412D01*
X020725Y005307D01*
X020725Y004803D01*
X020831Y004698D01*
X022090Y004698D01*
X022017Y004625D01*
X020831Y004625D01*
X020725Y004519D01*
X020725Y004016D01*
X020831Y003910D01*
X022161Y003910D01*
X022266Y004016D01*
X022266Y004139D01*
X022460Y004333D01*
X022534Y004333D01*
X022669Y004389D01*
X022721Y004441D01*
X023932Y004441D01*
X023984Y004389D01*
X024120Y004333D01*
X024266Y004333D01*
X024401Y004389D01*
X024505Y004492D01*
X024561Y004627D01*
X024561Y004774D01*
X024505Y004909D01*
X024401Y005013D01*
X024266Y005069D01*
X024120Y005069D01*
X023984Y005013D01*
X023932Y004961D01*
X022721Y004961D01*
X022669Y005013D01*
X022534Y005069D01*
X022522Y005069D01*
X022590Y005097D01*
X022694Y005201D01*
X022750Y005336D01*
X022750Y005483D01*
X022694Y005618D01*
X022590Y005721D01*
X022455Y005777D01*
X022309Y005777D01*
X022266Y005760D01*
X022266Y006094D01*
X022161Y006200D01*
X021796Y006200D01*
X021796Y007378D01*
X021750Y007489D01*
X020904Y008335D01*
X020819Y008420D01*
X020709Y008465D01*
X006102Y008465D01*
X005991Y008420D01*
X004845Y007274D01*
X004828Y007274D01*
X004693Y007217D01*
X004589Y007114D01*
X004533Y006979D01*
X004533Y006832D01*
X004589Y006697D01*
X004693Y006593D01*
X004828Y006537D01*
X004975Y006537D01*
X005110Y006593D01*
X005214Y006697D01*
X005270Y006832D01*
X005270Y006849D01*
X006286Y007865D01*
X006080Y007660D02*
X020731Y007660D01*
X020889Y007501D02*
X005922Y007501D01*
X005763Y007343D02*
X021048Y007343D01*
X021196Y007184D02*
X005605Y007184D01*
X005446Y007026D02*
X021196Y007026D01*
X021196Y006867D02*
X005288Y006867D01*
X005219Y006709D02*
X021196Y006709D01*
X021196Y006550D02*
X020738Y006550D01*
X020842Y006392D02*
X021196Y006392D01*
X021196Y006233D02*
X020860Y006233D01*
X020246Y006550D02*
X005006Y006550D01*
X004796Y006550D02*
X000879Y006550D01*
X000879Y006709D02*
X004584Y006709D01*
X004533Y006867D02*
X000879Y006867D01*
X000879Y007026D02*
X004553Y007026D01*
X004660Y007184D02*
X000879Y007184D01*
X000879Y007343D02*
X004915Y007343D01*
X005073Y007501D02*
X000879Y007501D01*
X000879Y007660D02*
X005232Y007660D01*
X005390Y007818D02*
X000879Y007818D01*
X000879Y007977D02*
X005549Y007977D01*
X005707Y008135D02*
X000879Y008135D01*
X000879Y008294D02*
X005866Y008294D01*
X006071Y008452D02*
X000879Y008452D01*
X000879Y008461D02*
X000881Y008481D01*
X000897Y008519D01*
X000926Y008548D01*
X000963Y008563D01*
X000984Y008565D01*
X026198Y008565D01*
X026231Y008562D01*
X026291Y008537D01*
X026336Y008491D01*
X026361Y008431D01*
X026364Y008399D01*
X026364Y000914D01*
X026361Y000883D01*
X026338Y000827D01*
X026295Y000784D01*
X026239Y000760D01*
X026208Y000757D01*
X000879Y000757D01*
X000879Y008461D01*
X000879Y006392D02*
X018356Y006392D01*
X018252Y006233D02*
X010233Y006233D01*
X010246Y006228D02*
X010094Y006291D01*
X009928Y006291D01*
X009775Y006228D01*
X009658Y006111D01*
X009594Y005958D01*
X009594Y005792D01*
X009658Y005639D01*
X009775Y005522D01*
X009928Y005459D01*
X010094Y005459D01*
X010182Y005495D01*
X012143Y003469D01*
X012143Y003389D01*
X012199Y003254D01*
X012302Y003150D01*
X012437Y003094D01*
X012584Y003094D01*
X012719Y003150D01*
X012823Y003254D01*
X012879Y003389D01*
X012879Y003536D01*
X012823Y003671D01*
X012719Y003775D01*
X012584Y003831D01*
X012516Y003831D01*
X010403Y006015D01*
X010364Y006111D01*
X010246Y006228D01*
X010378Y006075D02*
X018234Y006075D01*
X018287Y005916D02*
X010499Y005916D01*
X010652Y005758D02*
X018329Y005758D01*
X018313Y005599D02*
X010805Y005599D01*
X010959Y005441D02*
X013951Y005441D01*
X013919Y005409D02*
X013855Y005256D01*
X013855Y005090D01*
X013919Y004937D01*
X014032Y004824D01*
X014032Y004170D01*
X013513Y003651D01*
X013411Y003651D01*
X013276Y003595D01*
X013172Y003492D01*
X013116Y003357D01*
X013116Y003210D01*
X013172Y003075D01*
X013276Y002971D01*
X013411Y002915D01*
X013557Y002915D01*
X013693Y002971D01*
X013796Y003075D01*
X013852Y003210D01*
X013852Y003312D01*
X014475Y003935D01*
X014512Y004023D01*
X014512Y004824D01*
X014624Y004937D01*
X014688Y005090D01*
X014688Y005256D01*
X014624Y005409D01*
X014507Y005526D01*
X014354Y005589D01*
X014189Y005589D01*
X014036Y005526D01*
X013919Y005409D01*
X013866Y005282D02*
X011112Y005282D01*
X011265Y005124D02*
X013855Y005124D01*
X013907Y004965D02*
X011419Y004965D01*
X011572Y004807D02*
X014032Y004807D01*
X014032Y004648D02*
X011725Y004648D01*
X011879Y004490D02*
X014032Y004490D01*
X014032Y004331D02*
X012032Y004331D01*
X012185Y004173D02*
X014032Y004173D01*
X013876Y004014D02*
X012339Y004014D01*
X012492Y003856D02*
X013717Y003856D01*
X013559Y003697D02*
X012796Y003697D01*
X012877Y003539D02*
X013219Y003539D01*
X013126Y003380D02*
X012875Y003380D01*
X012511Y003462D02*
X010177Y005875D01*
X010011Y005875D01*
X009698Y005599D02*
X003345Y005599D01*
X003345Y005612D02*
X003280Y005769D01*
X003160Y005889D01*
X003003Y005954D01*
X002833Y005954D01*
X002676Y005889D01*
X002556Y005769D01*
X002491Y005612D01*
X002491Y005443D01*
X002556Y005286D01*
X002676Y005166D01*
X002833Y005101D01*
X003003Y005101D01*
X003160Y005166D01*
X003280Y005286D01*
X003345Y005443D01*
X003345Y005612D01*
X003285Y005758D02*
X009609Y005758D01*
X009594Y005916D02*
X003094Y005916D01*
X002742Y005916D02*
X000879Y005916D01*
X000879Y005758D02*
X002552Y005758D01*
X002491Y005599D02*
X000879Y005599D01*
X000879Y005441D02*
X002492Y005441D01*
X002560Y005282D02*
X000879Y005282D01*
X000879Y005124D02*
X002777Y005124D01*
X003059Y005124D02*
X010542Y005124D01*
X010388Y005282D02*
X003277Y005282D01*
X003344Y005441D02*
X010235Y005441D01*
X010695Y004965D02*
X008606Y004965D01*
X008608Y004965D02*
X008473Y005021D01*
X008326Y005021D01*
X008191Y004965D01*
X008087Y004861D01*
X008038Y004741D01*
X006535Y004741D01*
X006483Y004793D01*
X006348Y004849D01*
X006201Y004849D01*
X006066Y004793D01*
X005962Y004690D01*
X005906Y004554D01*
X005906Y004408D01*
X005962Y004273D01*
X006066Y004169D01*
X006201Y004113D01*
X006348Y004113D01*
X006483Y004169D01*
X006535Y004221D01*
X007523Y004221D01*
X007395Y004168D01*
X007291Y004065D01*
X007235Y003929D01*
X007235Y003783D01*
X007291Y003648D01*
X007395Y003544D01*
X007530Y003488D01*
X007604Y003488D01*
X007793Y003299D01*
X007888Y003260D01*
X010786Y003260D01*
X011439Y002607D01*
X011439Y002533D01*
X011495Y002398D01*
X011598Y002294D01*
X011734Y002238D01*
X011880Y002238D01*
X012015Y002294D01*
X012068Y002346D01*
X013643Y002346D01*
X013695Y002294D01*
X013830Y002238D01*
X013977Y002238D01*
X014112Y002294D01*
X014215Y002398D01*
X014272Y002533D01*
X014272Y002679D01*
X014215Y002815D01*
X014112Y002918D01*
X013977Y002974D01*
X013830Y002974D01*
X013695Y002918D01*
X013643Y002866D01*
X012068Y002866D01*
X012015Y002918D01*
X011880Y002974D01*
X011807Y002974D01*
X011041Y003740D01*
X010945Y003780D01*
X008048Y003780D01*
X007971Y003856D01*
X011768Y003856D01*
X011922Y003697D02*
X011083Y003697D01*
X011242Y003539D02*
X012075Y003539D01*
X012146Y003380D02*
X011400Y003380D01*
X011559Y003222D02*
X012231Y003222D01*
X011717Y003063D02*
X013183Y003063D01*
X013116Y003222D02*
X012791Y003222D01*
X012029Y002905D02*
X013682Y002905D01*
X013785Y003063D02*
X026364Y003063D01*
X026364Y003222D02*
X022248Y003222D01*
X022254Y003234D02*
X022231Y003193D01*
X022197Y003159D01*
X022156Y003135D01*
X022110Y003123D01*
X021505Y003123D01*
X021505Y003472D01*
X021505Y003489D01*
X022266Y003489D01*
X022266Y003681D01*
X022254Y003727D01*
X022231Y003768D01*
X022197Y003801D01*
X022156Y003825D01*
X022110Y003837D01*
X021505Y003837D01*
X021505Y003489D01*
X021487Y003489D01*
X021487Y003472D01*
X020725Y003472D01*
X020725Y003279D01*
X020738Y003234D01*
X020761Y003193D01*
X020795Y003159D01*
X020836Y003135D01*
X020882Y003123D01*
X021487Y003123D01*
X021487Y003472D01*
X021505Y003472D01*
X022266Y003472D01*
X022266Y003279D01*
X022254Y003234D01*
X022266Y003380D02*
X024534Y003380D01*
X024564Y003368D02*
X024407Y003433D01*
X024287Y003553D01*
X024222Y003710D01*
X024222Y003880D01*
X024287Y004037D01*
X024407Y004157D01*
X024564Y004222D01*
X024733Y004222D01*
X024890Y004157D01*
X025010Y004037D01*
X025075Y003880D01*
X025075Y003710D01*
X025010Y003553D01*
X024890Y003433D01*
X024733Y003368D01*
X024564Y003368D01*
X024763Y003380D02*
X026364Y003380D01*
X026364Y003539D02*
X024996Y003539D01*
X025070Y003697D02*
X026364Y003697D01*
X026364Y003856D02*
X025075Y003856D01*
X025020Y004014D02*
X026364Y004014D01*
X026364Y004173D02*
X024852Y004173D01*
X024445Y004173D02*
X022300Y004173D01*
X022459Y004331D02*
X026364Y004331D01*
X026364Y004490D02*
X024503Y004490D01*
X024561Y004648D02*
X026364Y004648D01*
X026364Y004807D02*
X024547Y004807D01*
X024193Y004701D02*
X022461Y004701D01*
X021988Y004228D01*
X021496Y004268D01*
X020725Y004331D02*
X020703Y004331D01*
X020703Y004312D02*
X020647Y004177D01*
X020543Y004074D01*
X020408Y004018D01*
X020261Y004018D01*
X020126Y004074D01*
X020074Y004126D01*
X018958Y004126D01*
X018914Y004020D01*
X018811Y003916D01*
X018675Y003860D01*
X018529Y003860D01*
X018394Y003916D01*
X018290Y004020D01*
X018234Y004155D01*
X018234Y004301D01*
X018290Y004437D01*
X018394Y004540D01*
X018529Y004596D01*
X018603Y004596D01*
X018612Y004606D01*
X018708Y004646D01*
X020074Y004646D01*
X020126Y004698D01*
X020261Y004754D01*
X020408Y004754D01*
X020543Y004698D01*
X020647Y004594D01*
X020703Y004459D01*
X020703Y004312D01*
X020725Y004173D02*
X020642Y004173D01*
X020727Y004014D02*
X018909Y004014D01*
X018602Y004228D02*
X018760Y004386D01*
X020335Y004386D01*
X020690Y004490D02*
X020725Y004490D01*
X020592Y004648D02*
X022041Y004648D01*
X022716Y004965D02*
X023937Y004965D01*
X024287Y005286D02*
X024407Y005166D01*
X024564Y005101D01*
X024733Y005101D01*
X024890Y005166D01*
X025010Y005286D01*
X025075Y005443D01*
X025075Y005612D01*
X025010Y005769D01*
X024890Y005889D01*
X024733Y005954D01*
X024564Y005954D01*
X024407Y005889D01*
X024287Y005769D01*
X024222Y005612D01*
X024222Y005443D01*
X024287Y005286D01*
X024290Y005282D02*
X022728Y005282D01*
X022617Y005124D02*
X024507Y005124D01*
X024790Y005124D02*
X026364Y005124D01*
X026364Y005282D02*
X025007Y005282D01*
X025075Y005441D02*
X026364Y005441D01*
X026364Y005599D02*
X025075Y005599D01*
X025015Y005758D02*
X026364Y005758D01*
X026364Y005916D02*
X024825Y005916D01*
X024472Y005916D02*
X022266Y005916D01*
X022266Y006075D02*
X026364Y006075D01*
X026364Y006233D02*
X021796Y006233D01*
X021796Y006392D02*
X026364Y006392D01*
X026364Y006550D02*
X023339Y006550D01*
X023327Y006538D02*
X023562Y006773D01*
X023689Y007080D01*
X023689Y007412D01*
X023562Y007719D01*
X023327Y007954D01*
X023020Y008081D01*
X022688Y008081D01*
X022381Y007954D01*
X022146Y007719D01*
X022019Y007412D01*
X022019Y007080D01*
X022146Y006773D01*
X022381Y006538D01*
X022688Y006411D01*
X023020Y006411D01*
X023327Y006538D01*
X023498Y006709D02*
X026364Y006709D01*
X026364Y006867D02*
X023601Y006867D01*
X023667Y007026D02*
X026364Y007026D01*
X026364Y007184D02*
X023689Y007184D01*
X023689Y007343D02*
X026364Y007343D01*
X026364Y007501D02*
X023652Y007501D01*
X023587Y007660D02*
X026364Y007660D01*
X026364Y007818D02*
X023463Y007818D01*
X023272Y007977D02*
X026364Y007977D01*
X026364Y008135D02*
X021104Y008135D01*
X021262Y007977D02*
X022436Y007977D01*
X022245Y007818D02*
X021421Y007818D01*
X021579Y007660D02*
X022122Y007660D01*
X022056Y007501D02*
X021738Y007501D01*
X021796Y007343D02*
X022019Y007343D01*
X022019Y007184D02*
X021796Y007184D01*
X021796Y007026D02*
X022042Y007026D01*
X022107Y006867D02*
X021796Y006867D01*
X021796Y006709D02*
X022211Y006709D01*
X022369Y006550D02*
X021796Y006550D01*
X022502Y005758D02*
X024282Y005758D01*
X024222Y005599D02*
X022701Y005599D01*
X022750Y005441D02*
X024222Y005441D01*
X024449Y004965D02*
X026364Y004965D01*
X024277Y004014D02*
X022265Y004014D01*
X022262Y003697D02*
X024227Y003697D01*
X024301Y003539D02*
X022266Y003539D01*
X021505Y003539D02*
X021487Y003539D01*
X021487Y003489D02*
X021487Y003837D01*
X020882Y003837D01*
X020836Y003825D01*
X020795Y003801D01*
X020761Y003768D01*
X020738Y003727D01*
X020725Y003681D01*
X020725Y003489D01*
X021487Y003489D01*
X021487Y003380D02*
X021505Y003380D01*
X021505Y003222D02*
X021487Y003222D01*
X020744Y003222D02*
X013852Y003222D01*
X013921Y003380D02*
X020725Y003380D01*
X020725Y003539D02*
X014079Y003539D01*
X014238Y003697D02*
X020730Y003697D01*
X021487Y003697D02*
X021505Y003697D01*
X022381Y002784D02*
X022688Y002911D01*
X023020Y002911D01*
X023327Y002784D01*
X023562Y002549D01*
X023689Y002242D01*
X023689Y001910D01*
X023562Y001603D01*
X023327Y001368D01*
X023020Y001241D01*
X022688Y001241D01*
X022381Y001368D01*
X022146Y001603D01*
X022019Y001910D01*
X022019Y002242D01*
X022146Y002549D01*
X022381Y002784D01*
X022343Y002746D02*
X014244Y002746D01*
X014272Y002588D02*
X022185Y002588D01*
X022097Y002429D02*
X014229Y002429D01*
X014056Y002271D02*
X022031Y002271D01*
X022019Y002112D02*
X000879Y002112D01*
X000879Y002271D02*
X011654Y002271D01*
X011960Y002271D02*
X013751Y002271D01*
X013903Y002606D02*
X011807Y002606D01*
X010894Y003520D01*
X007940Y003520D01*
X007603Y003856D01*
X007235Y003856D02*
X003345Y003856D01*
X003345Y003880D02*
X003280Y004037D01*
X003160Y004157D01*
X003003Y004222D01*
X002833Y004222D01*
X002676Y004157D01*
X002556Y004037D01*
X002491Y003880D01*
X002491Y003710D01*
X002556Y003553D01*
X002676Y003433D01*
X002833Y003368D01*
X003003Y003368D01*
X003160Y003433D01*
X003280Y003553D01*
X003345Y003710D01*
X003345Y003880D01*
X003340Y003697D02*
X007271Y003697D01*
X007407Y003539D02*
X003266Y003539D01*
X003032Y003380D02*
X007711Y003380D01*
X007971Y003856D02*
X007971Y003929D01*
X007915Y004065D01*
X007812Y004168D01*
X007684Y004221D01*
X008280Y004221D01*
X008376Y004261D01*
X008399Y004284D01*
X008473Y004284D01*
X008608Y004340D01*
X008712Y004444D01*
X008768Y004579D01*
X008768Y004726D01*
X008712Y004861D01*
X008608Y004965D01*
X008734Y004807D02*
X010848Y004807D01*
X011002Y004648D02*
X008768Y004648D01*
X008399Y004652D02*
X008228Y004481D01*
X006274Y004481D01*
X005906Y004490D02*
X000879Y004490D01*
X000879Y004648D02*
X005945Y004648D01*
X006099Y004807D02*
X000879Y004807D01*
X000879Y004965D02*
X008193Y004965D01*
X008065Y004807D02*
X006450Y004807D01*
X005938Y004331D02*
X000879Y004331D01*
X000879Y004173D02*
X002715Y004173D01*
X002547Y004014D02*
X000879Y004014D01*
X000879Y003856D02*
X002491Y003856D01*
X002497Y003697D02*
X000879Y003697D01*
X000879Y003539D02*
X002571Y003539D01*
X002804Y003380D02*
X000879Y003380D01*
X000879Y003222D02*
X010824Y003222D01*
X010982Y003063D02*
X000879Y003063D01*
X000879Y002905D02*
X011141Y002905D01*
X011299Y002746D02*
X000879Y002746D01*
X000879Y002588D02*
X011439Y002588D01*
X011482Y002429D02*
X000879Y002429D01*
X000879Y001954D02*
X022019Y001954D01*
X022067Y001795D02*
X000879Y001795D01*
X000879Y001637D02*
X022132Y001637D01*
X022271Y001478D02*
X000879Y001478D01*
X000879Y001320D02*
X022498Y001320D01*
X023210Y001320D02*
X026364Y001320D01*
X026364Y001161D02*
X000879Y001161D01*
X000879Y001003D02*
X026364Y001003D01*
X026345Y000844D02*
X000879Y000844D01*
X003289Y004014D02*
X007270Y004014D01*
X007406Y004173D02*
X006487Y004173D01*
X006062Y004173D02*
X003122Y004173D01*
X007800Y004173D02*
X011462Y004173D01*
X011308Y004331D02*
X008586Y004331D01*
X008731Y004490D02*
X011155Y004490D01*
X011615Y004014D02*
X007936Y004014D01*
X009643Y006075D02*
X000879Y006075D01*
X000879Y006233D02*
X009789Y006233D01*
X014592Y005441D02*
X018367Y005441D01*
X018596Y005282D02*
X014677Y005282D01*
X014688Y005124D02*
X020725Y005124D01*
X020725Y005282D02*
X018766Y005282D01*
X018995Y005441D02*
X020255Y005441D01*
X020145Y005599D02*
X019049Y005599D01*
X019133Y005758D02*
X020119Y005758D01*
X020729Y005441D02*
X022014Y005441D01*
X022067Y005094D02*
X022382Y005409D01*
X022067Y005094D02*
X021712Y005094D01*
X021496Y005055D01*
X020725Y004965D02*
X014636Y004965D01*
X014512Y004807D02*
X020725Y004807D01*
X020077Y004648D02*
X014512Y004648D01*
X014512Y004490D02*
X018343Y004490D01*
X018247Y004331D02*
X014512Y004331D01*
X014512Y004173D02*
X018234Y004173D01*
X018295Y004014D02*
X014508Y004014D01*
X014396Y003856D02*
X024222Y003856D01*
X023036Y002905D02*
X026364Y002905D01*
X026364Y002746D02*
X023365Y002746D01*
X023523Y002588D02*
X026364Y002588D01*
X026364Y002429D02*
X023612Y002429D01*
X023677Y002271D02*
X026364Y002271D01*
X026364Y002112D02*
X023689Y002112D01*
X023689Y001954D02*
X026364Y001954D01*
X026364Y001795D02*
X023642Y001795D01*
X023576Y001637D02*
X026364Y001637D01*
X026364Y001478D02*
X023437Y001478D01*
X022673Y002905D02*
X014125Y002905D01*
X020945Y008294D02*
X026364Y008294D01*
X026352Y008452D02*
X020740Y008452D01*
D15*
X014272Y005173D03*
X010011Y005875D03*
D16*
X011432Y002981D02*
X011807Y002606D01*
D17*
X011432Y002981D02*
X011424Y002981D01*
X013484Y003283D02*
X014272Y004071D01*
X014272Y005173D01*
X018602Y006118D02*
X018760Y006275D01*
X020492Y006275D01*
X020177Y006039D02*
X019075Y006039D01*
X018681Y005646D01*
X020177Y006039D02*
X020492Y005724D01*
D18*
X021496Y005842D02*
X021496Y007319D01*
X020649Y008165D01*
X006161Y008165D01*
X004901Y006905D01*
M02*
