%
M48
M72
T01C0.0236
T02C0.0315
T03C0.0394
T04C0.0910
%
T01
X21673Y2968
X20256Y3047
X17342Y3520
X18602Y4228
X20335Y4386
X22461Y4701
X24193Y4701
X22382Y5409
X22854Y5646
X20492Y5724
X20492Y6275
X18602Y6118
X18681Y5646
X17264Y4858
X13484Y3283
X12511Y3462
X11807Y2606
X13903Y2606
X9741Y3893
X8399Y3981
X7603Y3856
X6399Y3699
X4825Y3777
X5621Y4601
X6274Y4481
X7274Y5152
X8399Y4652
X11788Y5625
X6749Y6806
X4901Y6905
X9269Y3026
X8163Y2406
X6591Y2397
X18602Y6905
X20413Y7614
T02
X14272Y5173
X10011Y5875
T03
X2918Y3795
X2918Y5527
X24649Y5527
X24649Y3795
T04
X22854Y2076
X22854Y7246
M30
