G75*
%MOIN*%
%OFA0B0*%
%FSLAX24Y24*%
%IPPOS*%
%LPD*%
%AMOC8*
5,1,8,0,0,1.08239X$1,22.5*
%
%ADD10C,0.0000*%
%ADD11C,0.0010*%
%ADD12C,0.0050*%
%ADD13C,0.0040*%
D10*
X000872Y000527D02*
X026208Y000527D01*
X026208Y000528D02*
X026246Y000530D01*
X026283Y000535D01*
X026320Y000545D01*
X026356Y000557D01*
X026390Y000574D01*
X026422Y000593D01*
X026453Y000616D01*
X026481Y000641D01*
X026506Y000669D01*
X026529Y000700D01*
X026548Y000732D01*
X026565Y000766D01*
X026577Y000802D01*
X026587Y000839D01*
X026592Y000876D01*
X026594Y000914D01*
X026594Y008399D01*
X026592Y008438D01*
X026586Y008476D01*
X026577Y008514D01*
X026564Y008551D01*
X026547Y008586D01*
X026527Y008619D01*
X026504Y008650D01*
X026478Y008679D01*
X026449Y008705D01*
X026418Y008728D01*
X026385Y008748D01*
X026350Y008765D01*
X026313Y008778D01*
X026275Y008787D01*
X026237Y008793D01*
X026198Y008795D01*
X000984Y008795D01*
X000949Y008793D01*
X000915Y008788D01*
X000881Y008779D01*
X000848Y008766D01*
X000817Y008750D01*
X000788Y008731D01*
X000761Y008709D01*
X000736Y008684D01*
X000714Y008657D01*
X000695Y008628D01*
X000679Y008597D01*
X000666Y008564D01*
X000657Y008530D01*
X000652Y008496D01*
X000650Y008461D01*
X000649Y008461D02*
X000649Y000750D01*
X000651Y000721D01*
X000657Y000692D01*
X000666Y000665D01*
X000679Y000639D01*
X000695Y000614D01*
X000714Y000592D01*
X000736Y000573D01*
X000760Y000557D01*
X000787Y000544D01*
X000814Y000535D01*
X000843Y000529D01*
X000872Y000527D01*
X002721Y003795D02*
X002723Y003822D01*
X002729Y003849D01*
X002738Y003875D01*
X002751Y003899D01*
X002767Y003922D01*
X002786Y003941D01*
X002808Y003958D01*
X002832Y003972D01*
X002857Y003982D01*
X002884Y003989D01*
X002911Y003992D01*
X002939Y003991D01*
X002966Y003986D01*
X002992Y003978D01*
X003016Y003966D01*
X003039Y003950D01*
X003060Y003932D01*
X003077Y003911D01*
X003092Y003887D01*
X003103Y003862D01*
X003111Y003836D01*
X003115Y003809D01*
X003115Y003781D01*
X003111Y003754D01*
X003103Y003728D01*
X003092Y003703D01*
X003077Y003679D01*
X003060Y003658D01*
X003039Y003640D01*
X003017Y003624D01*
X002992Y003612D01*
X002966Y003604D01*
X002939Y003599D01*
X002911Y003598D01*
X002884Y003601D01*
X002857Y003608D01*
X002832Y003618D01*
X002808Y003632D01*
X002786Y003649D01*
X002767Y003668D01*
X002751Y003691D01*
X002738Y003715D01*
X002729Y003741D01*
X002723Y003768D01*
X002721Y003795D01*
X002721Y005527D02*
X002723Y005554D01*
X002729Y005581D01*
X002738Y005607D01*
X002751Y005631D01*
X002767Y005654D01*
X002786Y005673D01*
X002808Y005690D01*
X002832Y005704D01*
X002857Y005714D01*
X002884Y005721D01*
X002911Y005724D01*
X002939Y005723D01*
X002966Y005718D01*
X002992Y005710D01*
X003016Y005698D01*
X003039Y005682D01*
X003060Y005664D01*
X003077Y005643D01*
X003092Y005619D01*
X003103Y005594D01*
X003111Y005568D01*
X003115Y005541D01*
X003115Y005513D01*
X003111Y005486D01*
X003103Y005460D01*
X003092Y005435D01*
X003077Y005411D01*
X003060Y005390D01*
X003039Y005372D01*
X003017Y005356D01*
X002992Y005344D01*
X002966Y005336D01*
X002939Y005331D01*
X002911Y005330D01*
X002884Y005333D01*
X002857Y005340D01*
X002832Y005350D01*
X002808Y005364D01*
X002786Y005381D01*
X002767Y005400D01*
X002751Y005423D01*
X002738Y005447D01*
X002729Y005473D01*
X002723Y005500D01*
X002721Y005527D01*
X024452Y005527D02*
X024454Y005554D01*
X024460Y005581D01*
X024469Y005607D01*
X024482Y005631D01*
X024498Y005654D01*
X024517Y005673D01*
X024539Y005690D01*
X024563Y005704D01*
X024588Y005714D01*
X024615Y005721D01*
X024642Y005724D01*
X024670Y005723D01*
X024697Y005718D01*
X024723Y005710D01*
X024747Y005698D01*
X024770Y005682D01*
X024791Y005664D01*
X024808Y005643D01*
X024823Y005619D01*
X024834Y005594D01*
X024842Y005568D01*
X024846Y005541D01*
X024846Y005513D01*
X024842Y005486D01*
X024834Y005460D01*
X024823Y005435D01*
X024808Y005411D01*
X024791Y005390D01*
X024770Y005372D01*
X024748Y005356D01*
X024723Y005344D01*
X024697Y005336D01*
X024670Y005331D01*
X024642Y005330D01*
X024615Y005333D01*
X024588Y005340D01*
X024563Y005350D01*
X024539Y005364D01*
X024517Y005381D01*
X024498Y005400D01*
X024482Y005423D01*
X024469Y005447D01*
X024460Y005473D01*
X024454Y005500D01*
X024452Y005527D01*
X024452Y003795D02*
X024454Y003822D01*
X024460Y003849D01*
X024469Y003875D01*
X024482Y003899D01*
X024498Y003922D01*
X024517Y003941D01*
X024539Y003958D01*
X024563Y003972D01*
X024588Y003982D01*
X024615Y003989D01*
X024642Y003992D01*
X024670Y003991D01*
X024697Y003986D01*
X024723Y003978D01*
X024747Y003966D01*
X024770Y003950D01*
X024791Y003932D01*
X024808Y003911D01*
X024823Y003887D01*
X024834Y003862D01*
X024842Y003836D01*
X024846Y003809D01*
X024846Y003781D01*
X024842Y003754D01*
X024834Y003728D01*
X024823Y003703D01*
X024808Y003679D01*
X024791Y003658D01*
X024770Y003640D01*
X024748Y003624D01*
X024723Y003612D01*
X024697Y003604D01*
X024670Y003599D01*
X024642Y003598D01*
X024615Y003601D01*
X024588Y003608D01*
X024563Y003618D01*
X024539Y003632D01*
X024517Y003649D01*
X024498Y003668D01*
X024482Y003691D01*
X024469Y003715D01*
X024460Y003741D01*
X024454Y003768D01*
X024452Y003795D01*
D11*
X014167Y002299D02*
X014067Y002299D01*
X014020Y002299D02*
X013920Y002149D01*
X013872Y002149D02*
X013797Y002149D01*
X013772Y002174D01*
X013772Y002274D01*
X013797Y002299D01*
X013872Y002299D01*
X013872Y002149D01*
X014020Y002149D02*
X013920Y002299D01*
X014117Y002299D02*
X014117Y002149D01*
X012149Y002936D02*
X012149Y003086D01*
X012199Y003086D02*
X012099Y003086D01*
X012051Y003086D02*
X011951Y002936D01*
X011904Y002936D02*
X011829Y002936D01*
X011804Y002961D01*
X011804Y003061D01*
X011829Y003086D01*
X011904Y003086D01*
X011904Y002936D01*
X012051Y002936D02*
X011951Y003086D01*
X012223Y003802D02*
X012198Y003827D01*
X012198Y003927D01*
X012223Y003952D01*
X012298Y003952D01*
X012298Y003802D01*
X012223Y003802D01*
X012345Y003802D02*
X012445Y003952D01*
X012492Y003927D02*
X012492Y003877D01*
X012517Y003852D01*
X012592Y003852D01*
X012542Y003852D02*
X012492Y003802D01*
X012445Y003802D02*
X012345Y003952D01*
X012492Y003927D02*
X012517Y003952D01*
X012592Y003952D01*
X012592Y003802D01*
X013429Y005141D02*
X013429Y005291D01*
X013479Y005291D02*
X013379Y005291D01*
X013336Y005311D02*
X013778Y005311D01*
X013773Y005291D02*
X013698Y005291D01*
X013673Y005266D01*
X013673Y005216D01*
X013698Y005191D01*
X013773Y005191D01*
X013723Y005191D02*
X013673Y005141D01*
X013626Y005166D02*
X013601Y005141D01*
X013551Y005141D01*
X013526Y005166D01*
X013526Y005191D01*
X013551Y005216D01*
X013601Y005216D01*
X013626Y005241D01*
X013626Y005266D01*
X013601Y005291D01*
X013551Y005291D01*
X013526Y005266D01*
X013773Y005291D02*
X013773Y005141D01*
X010230Y006243D02*
X010230Y006393D01*
X010155Y006393D01*
X010130Y006368D01*
X010130Y006318D01*
X010155Y006293D01*
X010230Y006293D01*
X010180Y006293D02*
X010130Y006243D01*
X010083Y006243D02*
X009983Y006393D01*
X009935Y006393D02*
X009860Y006393D01*
X009835Y006368D01*
X009835Y006268D01*
X009860Y006243D01*
X009935Y006243D01*
X009935Y006393D01*
X010083Y006393D02*
X009983Y006243D01*
D12*
X021394Y007221D02*
X021394Y002101D01*
X021399Y002076D02*
X026904Y002076D01*
X026904Y002111D02*
X026904Y007211D01*
X026904Y007246D02*
X021399Y007246D01*
X023854Y006661D02*
X026354Y006411D01*
X026354Y005161D01*
X023854Y004911D01*
X023854Y004411D02*
X026354Y004161D01*
X026354Y002911D01*
X023854Y002661D01*
D13*
X021008Y006181D02*
X020701Y006181D01*
X020624Y006258D01*
X020624Y006411D01*
X020701Y006488D01*
X021008Y006488D02*
X021085Y006411D01*
X021085Y006258D01*
X021008Y006181D01*
X021085Y006642D02*
X020624Y006642D01*
X020624Y006949D02*
X021085Y006642D01*
X021085Y006949D02*
X020624Y006949D01*
X020701Y007102D02*
X020624Y007179D01*
X020624Y007332D01*
X020701Y007409D01*
X020778Y007409D01*
X020854Y007332D01*
X020854Y007256D01*
X020854Y007332D02*
X020931Y007409D01*
X021008Y007409D01*
X021085Y007332D01*
X021085Y007179D01*
X021008Y007102D01*
M02*
