G75*
%MOIN*%
%OFA0B0*%
%FSLAX24Y24*%
%IPPOS*%
%LPD*%
%AMOC8*
5,1,8,0,0,1.08239X$1,22.5*
%
%ADD10C,0.0000*%
%ADD11R,0.0394X0.0433*%
%ADD12R,0.0433X0.0394*%
%ADD13R,0.0315X0.0315*%
%ADD14R,0.0137X0.0550*%
%ADD15R,0.0118X0.0551*%
%ADD16R,0.0551X0.0118*%
%ADD17R,0.0945X0.0787*%
%ADD18R,0.0909X0.0197*%
%ADD19R,0.2100X0.0760*%
%ADD20R,0.0100X0.0450*%
%ADD21R,0.0450X0.0100*%
D10*
X000872Y000527D02*
X026208Y000527D01*
X026208Y000528D02*
X026246Y000530D01*
X026283Y000535D01*
X026320Y000545D01*
X026356Y000557D01*
X026390Y000574D01*
X026422Y000593D01*
X026453Y000616D01*
X026481Y000641D01*
X026506Y000669D01*
X026529Y000700D01*
X026548Y000732D01*
X026565Y000766D01*
X026577Y000802D01*
X026587Y000839D01*
X026592Y000876D01*
X026594Y000914D01*
X026594Y008399D01*
X026592Y008438D01*
X026586Y008476D01*
X026577Y008514D01*
X026564Y008551D01*
X026547Y008586D01*
X026527Y008619D01*
X026504Y008650D01*
X026478Y008679D01*
X026449Y008705D01*
X026418Y008728D01*
X026385Y008748D01*
X026350Y008765D01*
X026313Y008778D01*
X026275Y008787D01*
X026237Y008793D01*
X026198Y008795D01*
X000984Y008795D01*
X000949Y008793D01*
X000915Y008788D01*
X000881Y008779D01*
X000848Y008766D01*
X000817Y008750D01*
X000788Y008731D01*
X000761Y008709D01*
X000736Y008684D01*
X000714Y008657D01*
X000695Y008628D01*
X000679Y008597D01*
X000666Y008564D01*
X000657Y008530D01*
X000652Y008496D01*
X000650Y008461D01*
X000649Y008461D02*
X000649Y000750D01*
X000651Y000721D01*
X000657Y000692D01*
X000666Y000665D01*
X000679Y000639D01*
X000695Y000614D01*
X000714Y000592D01*
X000736Y000573D01*
X000760Y000557D01*
X000787Y000544D01*
X000814Y000535D01*
X000843Y000529D01*
X000872Y000527D01*
X002721Y003795D02*
X002723Y003822D01*
X002729Y003849D01*
X002738Y003875D01*
X002751Y003899D01*
X002767Y003922D01*
X002786Y003941D01*
X002808Y003958D01*
X002832Y003972D01*
X002857Y003982D01*
X002884Y003989D01*
X002911Y003992D01*
X002939Y003991D01*
X002966Y003986D01*
X002992Y003978D01*
X003016Y003966D01*
X003039Y003950D01*
X003060Y003932D01*
X003077Y003911D01*
X003092Y003887D01*
X003103Y003862D01*
X003111Y003836D01*
X003115Y003809D01*
X003115Y003781D01*
X003111Y003754D01*
X003103Y003728D01*
X003092Y003703D01*
X003077Y003679D01*
X003060Y003658D01*
X003039Y003640D01*
X003017Y003624D01*
X002992Y003612D01*
X002966Y003604D01*
X002939Y003599D01*
X002911Y003598D01*
X002884Y003601D01*
X002857Y003608D01*
X002832Y003618D01*
X002808Y003632D01*
X002786Y003649D01*
X002767Y003668D01*
X002751Y003691D01*
X002738Y003715D01*
X002729Y003741D01*
X002723Y003768D01*
X002721Y003795D01*
X002721Y005527D02*
X002723Y005554D01*
X002729Y005581D01*
X002738Y005607D01*
X002751Y005631D01*
X002767Y005654D01*
X002786Y005673D01*
X002808Y005690D01*
X002832Y005704D01*
X002857Y005714D01*
X002884Y005721D01*
X002911Y005724D01*
X002939Y005723D01*
X002966Y005718D01*
X002992Y005710D01*
X003016Y005698D01*
X003039Y005682D01*
X003060Y005664D01*
X003077Y005643D01*
X003092Y005619D01*
X003103Y005594D01*
X003111Y005568D01*
X003115Y005541D01*
X003115Y005513D01*
X003111Y005486D01*
X003103Y005460D01*
X003092Y005435D01*
X003077Y005411D01*
X003060Y005390D01*
X003039Y005372D01*
X003017Y005356D01*
X002992Y005344D01*
X002966Y005336D01*
X002939Y005331D01*
X002911Y005330D01*
X002884Y005333D01*
X002857Y005340D01*
X002832Y005350D01*
X002808Y005364D01*
X002786Y005381D01*
X002767Y005400D01*
X002751Y005423D01*
X002738Y005447D01*
X002729Y005473D01*
X002723Y005500D01*
X002721Y005527D01*
X024452Y005527D02*
X024454Y005554D01*
X024460Y005581D01*
X024469Y005607D01*
X024482Y005631D01*
X024498Y005654D01*
X024517Y005673D01*
X024539Y005690D01*
X024563Y005704D01*
X024588Y005714D01*
X024615Y005721D01*
X024642Y005724D01*
X024670Y005723D01*
X024697Y005718D01*
X024723Y005710D01*
X024747Y005698D01*
X024770Y005682D01*
X024791Y005664D01*
X024808Y005643D01*
X024823Y005619D01*
X024834Y005594D01*
X024842Y005568D01*
X024846Y005541D01*
X024846Y005513D01*
X024842Y005486D01*
X024834Y005460D01*
X024823Y005435D01*
X024808Y005411D01*
X024791Y005390D01*
X024770Y005372D01*
X024748Y005356D01*
X024723Y005344D01*
X024697Y005336D01*
X024670Y005331D01*
X024642Y005330D01*
X024615Y005333D01*
X024588Y005340D01*
X024563Y005350D01*
X024539Y005364D01*
X024517Y005381D01*
X024498Y005400D01*
X024482Y005423D01*
X024469Y005447D01*
X024460Y005473D01*
X024454Y005500D01*
X024452Y005527D01*
X024452Y003795D02*
X024454Y003822D01*
X024460Y003849D01*
X024469Y003875D01*
X024482Y003899D01*
X024498Y003922D01*
X024517Y003941D01*
X024539Y003958D01*
X024563Y003972D01*
X024588Y003982D01*
X024615Y003989D01*
X024642Y003992D01*
X024670Y003991D01*
X024697Y003986D01*
X024723Y003978D01*
X024747Y003966D01*
X024770Y003950D01*
X024791Y003932D01*
X024808Y003911D01*
X024823Y003887D01*
X024834Y003862D01*
X024842Y003836D01*
X024846Y003809D01*
X024846Y003781D01*
X024842Y003754D01*
X024834Y003728D01*
X024823Y003703D01*
X024808Y003679D01*
X024791Y003658D01*
X024770Y003640D01*
X024748Y003624D01*
X024723Y003612D01*
X024697Y003604D01*
X024670Y003599D01*
X024642Y003598D01*
X024615Y003601D01*
X024588Y003608D01*
X024563Y003618D01*
X024539Y003632D01*
X024517Y003649D01*
X024498Y003668D01*
X024482Y003691D01*
X024469Y003715D01*
X024460Y003741D01*
X024454Y003768D01*
X024452Y003795D01*
D11*
X021649Y003698D03*
X021649Y004367D03*
X021803Y005324D03*
X021134Y005324D03*
X021134Y006121D03*
X021803Y006121D03*
X009748Y005078D03*
X009748Y004408D03*
D12*
X009649Y002080D03*
X009649Y001410D03*
X006071Y001332D03*
X006071Y002001D03*
X017874Y003520D03*
X018543Y003520D03*
X019606Y003520D03*
X020275Y003520D03*
X007962Y006836D03*
X007293Y006836D03*
X019134Y008165D03*
X019803Y008165D03*
D13*
X008274Y001961D03*
X007649Y001961D03*
X006946Y001961D03*
X006946Y001371D03*
X007649Y001371D03*
X008274Y001371D03*
D14*
X008301Y002963D03*
X008045Y002963D03*
X007789Y002963D03*
X007533Y002963D03*
X007277Y002963D03*
X007022Y002963D03*
X006766Y002963D03*
X006510Y002963D03*
X006254Y002963D03*
X005998Y002963D03*
X005742Y002963D03*
X005486Y002963D03*
X008557Y002963D03*
X008813Y002963D03*
X008813Y005842D03*
X008557Y005842D03*
X008301Y005842D03*
X008045Y005842D03*
X007789Y005842D03*
X007533Y005842D03*
X007277Y005842D03*
X007022Y005842D03*
X006766Y005842D03*
X006510Y005842D03*
X006254Y005842D03*
X005998Y005842D03*
X005742Y005842D03*
X005486Y005842D03*
D15*
X011562Y006265D03*
X011759Y006265D03*
X011956Y006265D03*
X012152Y006265D03*
X012349Y006265D03*
X012546Y006265D03*
X012743Y006265D03*
X012940Y006265D03*
X013137Y006265D03*
X013334Y006265D03*
X013530Y006265D03*
X013727Y006265D03*
X013924Y006265D03*
X014121Y006265D03*
X014318Y006265D03*
X014515Y006265D03*
X014515Y001698D03*
X014318Y001698D03*
X014121Y001698D03*
X013924Y001698D03*
X013727Y001698D03*
X013530Y001698D03*
X013334Y001698D03*
X013137Y001698D03*
X012940Y001698D03*
X012743Y001698D03*
X012546Y001698D03*
X012349Y001698D03*
X012152Y001698D03*
X011956Y001698D03*
X011759Y001698D03*
X011562Y001698D03*
D16*
X010755Y002505D03*
X010755Y002702D03*
X010755Y002899D03*
X010755Y003095D03*
X010755Y003292D03*
X010755Y003489D03*
X010755Y003686D03*
X010755Y003883D03*
X010755Y004080D03*
X010755Y004276D03*
X010755Y004473D03*
X010755Y004670D03*
X010755Y004867D03*
X010755Y005064D03*
X010755Y005261D03*
X010755Y005458D03*
X015322Y005458D03*
X015322Y005261D03*
X015322Y005064D03*
X015322Y004867D03*
X015322Y004670D03*
X015322Y004473D03*
X015322Y004276D03*
X015322Y004080D03*
X015322Y003883D03*
X015322Y003686D03*
X015322Y003489D03*
X015322Y003292D03*
X015322Y003095D03*
X015322Y002899D03*
X015322Y002702D03*
X015322Y002505D03*
D17*
X023664Y002929D03*
X025830Y002929D03*
X025830Y006394D03*
X023664Y006394D03*
X003902Y006394D03*
X001737Y006394D03*
X001737Y002929D03*
X003902Y002929D03*
D18*
X004124Y004031D03*
X004124Y004346D03*
X004124Y004661D03*
X004124Y004976D03*
X004124Y005291D03*
X023442Y005291D03*
X023442Y004976D03*
X023442Y004661D03*
X023442Y004346D03*
X023442Y004031D03*
D19*
X020776Y001837D03*
X016976Y001837D03*
D20*
X017835Y004819D03*
X018031Y004819D03*
X018228Y004819D03*
X018425Y004819D03*
X018622Y004819D03*
X018819Y004819D03*
X019016Y004819D03*
X019212Y004819D03*
X019212Y007575D03*
X019016Y007575D03*
X018819Y007575D03*
X018622Y007575D03*
X018425Y007575D03*
X018228Y007575D03*
X018031Y007575D03*
X017835Y007575D03*
D21*
X017146Y006886D03*
X017146Y006689D03*
X017146Y006492D03*
X017146Y006295D03*
X017146Y006098D03*
X017146Y005901D03*
X017146Y005705D03*
X017146Y005508D03*
X019901Y005508D03*
X019901Y005705D03*
X019901Y005901D03*
X019901Y006098D03*
X019901Y006295D03*
X019901Y006492D03*
X019901Y006689D03*
X019901Y006886D03*
M02*
