G75*
%MOIN*%
%OFA0B0*%
%FSLAX24Y24*%
%IPPOS*%
%LPD*%
%AMOC8*
5,1,8,0,0,1.08239X$1,22.5*
%
%ADD10C,0.0000*%
%ADD11R,0.0394X0.0433*%
%ADD12R,0.0433X0.0394*%
%ADD13R,0.0315X0.0315*%
%ADD14R,0.0137X0.0550*%
%ADD15R,0.0118X0.0551*%
%ADD16R,0.0551X0.0118*%
%ADD17R,0.0945X0.0787*%
%ADD18R,0.0909X0.0197*%
%ADD19R,0.2100X0.0760*%
%ADD20R,0.0100X0.0450*%
%ADD21R,0.0450X0.0100*%
%ADD22C,0.1310*%
%ADD23C,0.0120*%
%ADD24C,0.0376*%
%ADD25C,0.0100*%
%ADD26C,0.0240*%
%ADD27C,0.0160*%
%ADD28C,0.0472*%
D10*
X000872Y000527D02*
X026208Y000527D01*
X026208Y000528D02*
X026246Y000530D01*
X026283Y000535D01*
X026320Y000545D01*
X026356Y000557D01*
X026390Y000574D01*
X026422Y000593D01*
X026453Y000616D01*
X026481Y000641D01*
X026506Y000669D01*
X026529Y000700D01*
X026548Y000732D01*
X026565Y000766D01*
X026577Y000802D01*
X026587Y000839D01*
X026592Y000876D01*
X026594Y000914D01*
X026594Y008399D01*
X026592Y008438D01*
X026586Y008476D01*
X026577Y008514D01*
X026564Y008551D01*
X026547Y008586D01*
X026527Y008619D01*
X026504Y008650D01*
X026478Y008679D01*
X026449Y008705D01*
X026418Y008728D01*
X026385Y008748D01*
X026350Y008765D01*
X026313Y008778D01*
X026275Y008787D01*
X026237Y008793D01*
X026198Y008795D01*
X000984Y008795D01*
X000949Y008793D01*
X000915Y008788D01*
X000881Y008779D01*
X000848Y008766D01*
X000817Y008750D01*
X000788Y008731D01*
X000761Y008709D01*
X000736Y008684D01*
X000714Y008657D01*
X000695Y008628D01*
X000679Y008597D01*
X000666Y008564D01*
X000657Y008530D01*
X000652Y008496D01*
X000650Y008461D01*
X000649Y008461D02*
X000649Y000750D01*
X000651Y000721D01*
X000657Y000692D01*
X000666Y000665D01*
X000679Y000639D01*
X000695Y000614D01*
X000714Y000592D01*
X000736Y000573D01*
X000760Y000557D01*
X000787Y000544D01*
X000814Y000535D01*
X000843Y000529D01*
X000872Y000527D01*
X002721Y003795D02*
X002723Y003822D01*
X002729Y003849D01*
X002738Y003875D01*
X002751Y003899D01*
X002767Y003922D01*
X002786Y003941D01*
X002808Y003958D01*
X002832Y003972D01*
X002857Y003982D01*
X002884Y003989D01*
X002911Y003992D01*
X002939Y003991D01*
X002966Y003986D01*
X002992Y003978D01*
X003016Y003966D01*
X003039Y003950D01*
X003060Y003932D01*
X003077Y003911D01*
X003092Y003887D01*
X003103Y003862D01*
X003111Y003836D01*
X003115Y003809D01*
X003115Y003781D01*
X003111Y003754D01*
X003103Y003728D01*
X003092Y003703D01*
X003077Y003679D01*
X003060Y003658D01*
X003039Y003640D01*
X003017Y003624D01*
X002992Y003612D01*
X002966Y003604D01*
X002939Y003599D01*
X002911Y003598D01*
X002884Y003601D01*
X002857Y003608D01*
X002832Y003618D01*
X002808Y003632D01*
X002786Y003649D01*
X002767Y003668D01*
X002751Y003691D01*
X002738Y003715D01*
X002729Y003741D01*
X002723Y003768D01*
X002721Y003795D01*
X002721Y005527D02*
X002723Y005554D01*
X002729Y005581D01*
X002738Y005607D01*
X002751Y005631D01*
X002767Y005654D01*
X002786Y005673D01*
X002808Y005690D01*
X002832Y005704D01*
X002857Y005714D01*
X002884Y005721D01*
X002911Y005724D01*
X002939Y005723D01*
X002966Y005718D01*
X002992Y005710D01*
X003016Y005698D01*
X003039Y005682D01*
X003060Y005664D01*
X003077Y005643D01*
X003092Y005619D01*
X003103Y005594D01*
X003111Y005568D01*
X003115Y005541D01*
X003115Y005513D01*
X003111Y005486D01*
X003103Y005460D01*
X003092Y005435D01*
X003077Y005411D01*
X003060Y005390D01*
X003039Y005372D01*
X003017Y005356D01*
X002992Y005344D01*
X002966Y005336D01*
X002939Y005331D01*
X002911Y005330D01*
X002884Y005333D01*
X002857Y005340D01*
X002832Y005350D01*
X002808Y005364D01*
X002786Y005381D01*
X002767Y005400D01*
X002751Y005423D01*
X002738Y005447D01*
X002729Y005473D01*
X002723Y005500D01*
X002721Y005527D01*
X024452Y005527D02*
X024454Y005554D01*
X024460Y005581D01*
X024469Y005607D01*
X024482Y005631D01*
X024498Y005654D01*
X024517Y005673D01*
X024539Y005690D01*
X024563Y005704D01*
X024588Y005714D01*
X024615Y005721D01*
X024642Y005724D01*
X024670Y005723D01*
X024697Y005718D01*
X024723Y005710D01*
X024747Y005698D01*
X024770Y005682D01*
X024791Y005664D01*
X024808Y005643D01*
X024823Y005619D01*
X024834Y005594D01*
X024842Y005568D01*
X024846Y005541D01*
X024846Y005513D01*
X024842Y005486D01*
X024834Y005460D01*
X024823Y005435D01*
X024808Y005411D01*
X024791Y005390D01*
X024770Y005372D01*
X024748Y005356D01*
X024723Y005344D01*
X024697Y005336D01*
X024670Y005331D01*
X024642Y005330D01*
X024615Y005333D01*
X024588Y005340D01*
X024563Y005350D01*
X024539Y005364D01*
X024517Y005381D01*
X024498Y005400D01*
X024482Y005423D01*
X024469Y005447D01*
X024460Y005473D01*
X024454Y005500D01*
X024452Y005527D01*
X024452Y003795D02*
X024454Y003822D01*
X024460Y003849D01*
X024469Y003875D01*
X024482Y003899D01*
X024498Y003922D01*
X024517Y003941D01*
X024539Y003958D01*
X024563Y003972D01*
X024588Y003982D01*
X024615Y003989D01*
X024642Y003992D01*
X024670Y003991D01*
X024697Y003986D01*
X024723Y003978D01*
X024747Y003966D01*
X024770Y003950D01*
X024791Y003932D01*
X024808Y003911D01*
X024823Y003887D01*
X024834Y003862D01*
X024842Y003836D01*
X024846Y003809D01*
X024846Y003781D01*
X024842Y003754D01*
X024834Y003728D01*
X024823Y003703D01*
X024808Y003679D01*
X024791Y003658D01*
X024770Y003640D01*
X024748Y003624D01*
X024723Y003612D01*
X024697Y003604D01*
X024670Y003599D01*
X024642Y003598D01*
X024615Y003601D01*
X024588Y003608D01*
X024563Y003618D01*
X024539Y003632D01*
X024517Y003649D01*
X024498Y003668D01*
X024482Y003691D01*
X024469Y003715D01*
X024460Y003741D01*
X024454Y003768D01*
X024452Y003795D01*
D11*
X021649Y003698D03*
X021649Y004367D03*
X021803Y005324D03*
X021134Y005324D03*
X021134Y006121D03*
X021803Y006121D03*
X009748Y005078D03*
X009748Y004408D03*
D12*
X009649Y002080D03*
X009649Y001410D03*
X006071Y001332D03*
X006071Y002001D03*
X017874Y003520D03*
X018543Y003520D03*
X019606Y003520D03*
X020275Y003520D03*
X007962Y006836D03*
X007293Y006836D03*
X019134Y008165D03*
X019803Y008165D03*
D13*
X008274Y001961D03*
X007649Y001961D03*
X006946Y001961D03*
X006946Y001371D03*
X007649Y001371D03*
X008274Y001371D03*
D14*
X008301Y002963D03*
X008045Y002963D03*
X007789Y002963D03*
X007533Y002963D03*
X007277Y002963D03*
X007022Y002963D03*
X006766Y002963D03*
X006510Y002963D03*
X006254Y002963D03*
X005998Y002963D03*
X005742Y002963D03*
X005486Y002963D03*
X008557Y002963D03*
X008813Y002963D03*
X008813Y005842D03*
X008557Y005842D03*
X008301Y005842D03*
X008045Y005842D03*
X007789Y005842D03*
X007533Y005842D03*
X007277Y005842D03*
X007022Y005842D03*
X006766Y005842D03*
X006510Y005842D03*
X006254Y005842D03*
X005998Y005842D03*
X005742Y005842D03*
X005486Y005842D03*
D15*
X011562Y006265D03*
X011759Y006265D03*
X011956Y006265D03*
X012152Y006265D03*
X012349Y006265D03*
X012546Y006265D03*
X012743Y006265D03*
X012940Y006265D03*
X013137Y006265D03*
X013334Y006265D03*
X013530Y006265D03*
X013727Y006265D03*
X013924Y006265D03*
X014121Y006265D03*
X014318Y006265D03*
X014515Y006265D03*
X014515Y001698D03*
X014318Y001698D03*
X014121Y001698D03*
X013924Y001698D03*
X013727Y001698D03*
X013530Y001698D03*
X013334Y001698D03*
X013137Y001698D03*
X012940Y001698D03*
X012743Y001698D03*
X012546Y001698D03*
X012349Y001698D03*
X012152Y001698D03*
X011956Y001698D03*
X011759Y001698D03*
X011562Y001698D03*
D16*
X010755Y002505D03*
X010755Y002702D03*
X010755Y002899D03*
X010755Y003095D03*
X010755Y003292D03*
X010755Y003489D03*
X010755Y003686D03*
X010755Y003883D03*
X010755Y004080D03*
X010755Y004276D03*
X010755Y004473D03*
X010755Y004670D03*
X010755Y004867D03*
X010755Y005064D03*
X010755Y005261D03*
X010755Y005458D03*
X015322Y005458D03*
X015322Y005261D03*
X015322Y005064D03*
X015322Y004867D03*
X015322Y004670D03*
X015322Y004473D03*
X015322Y004276D03*
X015322Y004080D03*
X015322Y003883D03*
X015322Y003686D03*
X015322Y003489D03*
X015322Y003292D03*
X015322Y003095D03*
X015322Y002899D03*
X015322Y002702D03*
X015322Y002505D03*
D17*
X023664Y002929D03*
X025830Y002929D03*
X025830Y006394D03*
X023664Y006394D03*
X003902Y006394D03*
X001737Y006394D03*
X001737Y002929D03*
X003902Y002929D03*
D18*
X004124Y004031D03*
X004124Y004346D03*
X004124Y004661D03*
X004124Y004976D03*
X004124Y005291D03*
X023442Y005291D03*
X023442Y004976D03*
X023442Y004661D03*
X023442Y004346D03*
X023442Y004031D03*
D19*
X020776Y001837D03*
X016976Y001837D03*
D20*
X017835Y004819D03*
X018031Y004819D03*
X018228Y004819D03*
X018425Y004819D03*
X018622Y004819D03*
X018819Y004819D03*
X019016Y004819D03*
X019212Y004819D03*
X019212Y007575D03*
X019016Y007575D03*
X018819Y007575D03*
X018622Y007575D03*
X018425Y007575D03*
X018228Y007575D03*
X018031Y007575D03*
X017835Y007575D03*
D21*
X017146Y006886D03*
X017146Y006689D03*
X017146Y006492D03*
X017146Y006295D03*
X017146Y006098D03*
X017146Y005901D03*
X017146Y005705D03*
X017146Y005508D03*
X019901Y005508D03*
X019901Y005705D03*
X019901Y005901D03*
X019901Y006098D03*
X019901Y006295D03*
X019901Y006492D03*
X019901Y006689D03*
X019901Y006886D03*
D22*
X022854Y007246D03*
X022854Y002076D03*
D23*
X020905Y001945D02*
X020776Y001837D01*
X020905Y001945D02*
X020256Y001945D01*
X019606Y002594D01*
X019606Y003520D01*
X019468Y003657D01*
X019468Y005252D01*
X019724Y005508D01*
X019901Y005508D01*
X020492Y005724D02*
X020728Y005488D01*
X020969Y005488D01*
X021134Y005324D01*
X021803Y005324D02*
X022074Y005087D01*
X022461Y004701D01*
X022775Y004543D02*
X022933Y004386D01*
X023403Y004386D01*
X023442Y004346D01*
X023403Y004307D01*
X022775Y004543D02*
X022775Y005016D01*
X022382Y005409D01*
X021909Y005882D01*
X021806Y006118D01*
X021803Y006121D01*
X021055Y006042D02*
X020725Y006042D01*
X020492Y006275D01*
X019311Y006905D02*
X019016Y007201D01*
X019016Y007575D01*
X019016Y008126D01*
X019134Y008165D01*
X018819Y007575D02*
X018819Y007201D01*
X018760Y007063D01*
X018602Y006905D01*
X019311Y006905D02*
X019311Y005567D01*
X019016Y005272D01*
X019016Y004819D01*
X019212Y004819D02*
X019212Y004110D01*
X018543Y003520D01*
X018543Y002516D01*
X017894Y001866D01*
X017241Y001866D01*
X016976Y001837D01*
X015322Y002505D02*
X014893Y002505D01*
X013720Y003677D01*
X012725Y003677D01*
X012511Y003462D01*
X012546Y003427D01*
X012546Y001698D01*
X013334Y001698D02*
X013334Y003133D01*
X013484Y003283D01*
X013903Y002606D02*
X014083Y002606D01*
X014515Y002174D01*
X014515Y001698D01*
X011807Y002606D02*
X011318Y003095D01*
X010755Y003095D01*
X010755Y003292D02*
X010265Y003292D01*
X009649Y002677D01*
X009649Y002080D01*
X009649Y001410D02*
X009610Y001371D01*
X008274Y001371D01*
X007649Y001371D02*
X006946Y001371D01*
X006906Y001332D01*
X006071Y001332D01*
X005998Y001849D02*
X006071Y002001D01*
X005998Y001849D02*
X005998Y002963D01*
X006254Y002963D02*
X006254Y003632D01*
X007603Y003856D02*
X007789Y004042D01*
X007789Y005842D01*
X008301Y005842D02*
X008301Y006211D01*
X009075Y006984D01*
X012697Y006984D01*
X012940Y006741D01*
X012940Y006265D01*
X012743Y006265D02*
X012743Y006623D01*
X012618Y006748D01*
X009153Y006748D01*
X008557Y006151D01*
X008557Y005842D01*
X007274Y005777D02*
X007274Y005152D01*
X007022Y004899D01*
X007022Y002963D01*
X007277Y002963D02*
X007277Y002293D01*
X006946Y001961D01*
X007533Y002078D02*
X007649Y001961D01*
X007533Y002078D02*
X007533Y002963D01*
X008045Y002963D02*
X008301Y002963D01*
X014272Y005173D02*
X014823Y005724D01*
X015925Y005724D01*
X016496Y006295D01*
X017146Y006295D01*
X017146Y006098D02*
X016772Y006098D01*
X015934Y005261D01*
X015322Y005261D01*
X015322Y005064D02*
X016052Y005064D01*
X016693Y005705D01*
X017146Y005705D01*
X017500Y005901D02*
X017579Y005823D01*
X017579Y005488D01*
X017342Y005252D01*
X016949Y005252D01*
X016367Y004670D01*
X015322Y004670D01*
X015322Y004473D02*
X017745Y004473D01*
X017835Y004563D01*
X017835Y004819D01*
X018031Y004819D02*
X018031Y004366D01*
X017815Y004149D01*
X016083Y004149D01*
X016004Y004071D01*
X016004Y003283D01*
X015737Y003095D01*
X015322Y003095D01*
X017342Y003520D02*
X017874Y003520D01*
X018228Y003874D01*
X018228Y004819D01*
X018819Y004819D02*
X018819Y004445D01*
X018602Y004228D01*
X016811Y005508D02*
X016170Y004867D01*
X015322Y004867D01*
X016811Y005508D02*
X017146Y005508D01*
X017146Y005901D02*
X017500Y005901D01*
X011837Y005576D02*
X011788Y005625D01*
X011837Y005576D02*
X011759Y006265D01*
X011562Y006265D02*
X010755Y005458D01*
X010383Y005458D01*
X008045Y006753D02*
X007962Y006836D01*
X023442Y004661D02*
X024153Y004661D01*
X024193Y004701D01*
D24*
X024193Y004701D03*
X022461Y004701D03*
X022382Y005409D03*
X022854Y005646D03*
X020492Y005724D03*
X020492Y006275D03*
X018602Y006118D03*
X018681Y005646D03*
X017264Y004858D03*
X018602Y004228D03*
X020335Y004386D03*
X017342Y003520D03*
X020256Y003047D03*
X021673Y002968D03*
X013903Y002606D03*
X013484Y003283D03*
X012511Y003462D03*
X011807Y002606D03*
X009269Y003026D03*
X008163Y002406D03*
X006591Y002397D03*
X006399Y003699D03*
X007603Y003856D03*
X008399Y003981D03*
X009741Y003893D03*
X008399Y004652D03*
X007274Y005152D03*
X005621Y004601D03*
X006274Y004481D03*
X004825Y003777D03*
X011788Y005625D03*
X006749Y006806D03*
X004901Y006905D03*
X018602Y006905D03*
X020413Y007614D03*
D25*
X021134Y006121D02*
X021055Y006042D01*
X023442Y005291D02*
X023615Y005567D01*
X023720Y005567D01*
X018681Y005646D02*
X018622Y005586D01*
X018622Y004819D01*
X018425Y004819D02*
X018425Y005350D01*
X018287Y005488D01*
X018287Y005803D01*
X018602Y006118D01*
X008051Y005842D02*
X008045Y005842D01*
X007277Y005842D02*
X007277Y005780D01*
X007274Y005777D01*
D26*
X006379Y005252D02*
X006339Y005291D01*
X004823Y005291D01*
X004901Y005370D01*
X004901Y006905D01*
X007962Y006836D02*
X008741Y007614D01*
X016870Y007614D01*
X017421Y008165D01*
X019134Y008165D01*
X022854Y005646D02*
X023012Y005646D01*
X021709Y004307D02*
X021649Y004367D01*
X021709Y004307D02*
X021831Y004307D01*
X022106Y004031D01*
X023442Y004031D01*
X008051Y006275D02*
X008045Y006281D01*
X008045Y006753D01*
X004823Y005291D02*
X004124Y005291D01*
D27*
X003596Y005570D02*
X003490Y005464D01*
X003490Y004173D01*
X003494Y004169D01*
X003490Y004154D01*
X003490Y004031D01*
X003490Y003909D01*
X003502Y003863D01*
X003526Y003822D01*
X003560Y003789D01*
X003601Y003765D01*
X003646Y003753D01*
X004124Y003753D01*
X004124Y004031D01*
X003490Y004031D01*
X004124Y004031D01*
X004124Y004031D01*
X004124Y004031D01*
X004124Y003753D01*
X004603Y003753D01*
X004648Y003765D01*
X004689Y003789D01*
X004723Y003822D01*
X004747Y003863D01*
X004759Y003909D01*
X004759Y004031D01*
X004125Y004031D01*
X004125Y004031D01*
X004759Y004031D01*
X004759Y004154D01*
X004756Y004163D01*
X005226Y003693D01*
X005226Y002911D01*
X005238Y002884D01*
X005238Y002614D01*
X005343Y002508D01*
X005758Y002508D01*
X005758Y002356D01*
X005674Y002272D01*
X005674Y001729D01*
X005737Y001666D01*
X005674Y001603D01*
X005674Y001060D01*
X005780Y000955D01*
X006362Y000955D01*
X006467Y001060D01*
X006467Y001092D01*
X006656Y001092D01*
X006714Y001033D01*
X007178Y001033D01*
X007275Y001131D01*
X007320Y001131D01*
X007417Y001033D01*
X007882Y001033D01*
X007962Y001114D01*
X008042Y001033D01*
X008507Y001033D01*
X008604Y001131D01*
X009261Y001131D01*
X009358Y001033D01*
X009941Y001033D01*
X010046Y001139D01*
X010046Y001682D01*
X009983Y001745D01*
X010046Y001808D01*
X010046Y002351D01*
X009941Y002456D01*
X009889Y002456D01*
X009889Y002578D01*
X010299Y002987D01*
X010299Y002371D01*
X010405Y002266D01*
X011105Y002266D01*
X011210Y002371D01*
X011210Y002855D01*
X011218Y002855D01*
X011439Y002635D01*
X011439Y002533D01*
X011495Y002398D01*
X011598Y002294D01*
X011734Y002238D01*
X011880Y002238D01*
X012015Y002294D01*
X012119Y002398D01*
X012175Y002533D01*
X012175Y002679D01*
X012119Y002815D01*
X012015Y002918D01*
X011880Y002974D01*
X011778Y002974D01*
X011454Y003299D01*
X011366Y003335D01*
X011210Y003335D01*
X011210Y005574D01*
X011446Y005809D01*
X011676Y005809D01*
X011759Y005809D01*
X011841Y005809D01*
X011857Y005813D01*
X011873Y005809D01*
X011956Y005809D01*
X014568Y005809D01*
X014348Y005589D01*
X014189Y005589D01*
X014036Y005526D01*
X013919Y005409D01*
X013855Y005256D01*
X013855Y005090D01*
X013919Y004937D01*
X014036Y004820D01*
X014189Y004757D01*
X014354Y004757D01*
X014507Y004820D01*
X014624Y004937D01*
X014688Y005090D01*
X014688Y005250D01*
X014866Y005428D01*
X014866Y002871D01*
X013924Y003813D01*
X013856Y003881D01*
X013768Y003917D01*
X012678Y003917D01*
X012589Y003881D01*
X012539Y003831D01*
X012437Y003831D01*
X012302Y003775D01*
X012199Y003671D01*
X012143Y003536D01*
X012143Y003389D01*
X012199Y003254D01*
X012302Y003150D01*
X012306Y003149D01*
X012306Y002153D01*
X011428Y002153D01*
X011323Y002048D01*
X011323Y001348D01*
X011428Y001242D01*
X014648Y001242D01*
X014754Y001348D01*
X014754Y001648D01*
X014755Y001650D01*
X014755Y002222D01*
X014718Y002310D01*
X014286Y002742D01*
X014219Y002810D01*
X014217Y002810D01*
X014215Y002815D01*
X014112Y002918D01*
X013977Y002974D01*
X013830Y002974D01*
X013695Y002918D01*
X013591Y002815D01*
X013574Y002772D01*
X013574Y002922D01*
X013693Y002971D01*
X013796Y003075D01*
X013851Y003207D01*
X014757Y002301D01*
X014845Y002265D01*
X015369Y002265D01*
X015372Y002266D01*
X015672Y002266D01*
X015777Y002371D01*
X015777Y002855D01*
X015785Y002855D01*
X015810Y002866D01*
X015836Y002872D01*
X015854Y002884D01*
X015873Y002892D01*
X015892Y002911D01*
X016120Y003072D01*
X016140Y003080D01*
X016159Y003099D01*
X016181Y003115D01*
X016192Y003132D01*
X016207Y003147D01*
X016218Y003172D01*
X016232Y003195D01*
X016236Y003216D01*
X016244Y003236D01*
X016244Y003263D01*
X016248Y003289D01*
X016244Y003310D01*
X016244Y003909D01*
X017863Y003909D01*
X017951Y003946D01*
X018018Y004014D01*
X018234Y004229D01*
X018234Y004155D01*
X018290Y004020D01*
X018394Y003916D01*
X018441Y003896D01*
X018252Y003896D01*
X018209Y003853D01*
X018201Y003860D01*
X018160Y003884D01*
X018114Y003896D01*
X017892Y003896D01*
X017892Y003538D01*
X017855Y003538D01*
X017855Y003501D01*
X017477Y003501D01*
X017477Y003299D01*
X017490Y003253D01*
X017513Y003212D01*
X017547Y003179D01*
X017588Y003155D01*
X017634Y003143D01*
X017855Y003143D01*
X017855Y003501D01*
X017892Y003501D01*
X017892Y003143D01*
X018114Y003143D01*
X018160Y003155D01*
X018201Y003179D01*
X018209Y003186D01*
X018252Y003143D01*
X018303Y003143D01*
X018303Y002615D01*
X018086Y002397D01*
X015851Y002397D01*
X015746Y002292D01*
X015746Y001383D01*
X015851Y001277D01*
X018100Y001277D01*
X018206Y001383D01*
X018206Y001839D01*
X018747Y002380D01*
X018783Y002468D01*
X018783Y003143D01*
X018834Y003143D01*
X018940Y003248D01*
X018940Y003549D01*
X019210Y003788D01*
X019210Y003248D01*
X019315Y003143D01*
X019366Y003143D01*
X019366Y002547D01*
X019403Y002458D01*
X019557Y002304D01*
X019546Y002292D01*
X019546Y001383D01*
X019651Y001277D01*
X021900Y001277D01*
X022006Y001383D01*
X022006Y002292D01*
X021900Y002397D01*
X020142Y002397D01*
X019846Y002694D01*
X019846Y003143D01*
X019897Y003143D01*
X019941Y003186D01*
X019948Y003179D01*
X019989Y003155D01*
X020035Y003143D01*
X020257Y003143D01*
X020257Y003501D01*
X020294Y003501D01*
X020294Y003538D01*
X020672Y003538D01*
X020672Y003740D01*
X020660Y003786D01*
X020636Y003827D01*
X020603Y003860D01*
X020561Y003884D01*
X020516Y003896D01*
X020294Y003896D01*
X020294Y003538D01*
X020257Y003538D01*
X020257Y003896D01*
X020035Y003896D01*
X019989Y003884D01*
X019948Y003860D01*
X019941Y003853D01*
X019897Y003896D01*
X019708Y003896D01*
X019708Y005152D01*
X019824Y005268D01*
X019949Y005268D01*
X019973Y005278D01*
X020201Y005278D01*
X020306Y005383D01*
X020306Y005403D01*
X020419Y005356D01*
X020521Y005356D01*
X020525Y005352D01*
X020592Y005285D01*
X020680Y005248D01*
X020757Y005248D01*
X020757Y005033D01*
X020862Y004927D01*
X021405Y004927D01*
X021468Y004990D01*
X021532Y004927D01*
X021892Y004927D01*
X021910Y004912D01*
X022092Y004729D01*
X022092Y004627D01*
X022148Y004492D01*
X022252Y004389D01*
X022387Y004333D01*
X022534Y004333D01*
X022614Y004366D01*
X022648Y004331D01*
X022230Y004331D01*
X022648Y004331D01*
X022230Y004331D02*
X022085Y004477D01*
X022025Y004536D01*
X022025Y004658D01*
X021920Y004764D01*
X021377Y004764D01*
X021272Y004658D01*
X021272Y004646D01*
X020595Y004646D01*
X020543Y004698D01*
X020408Y004754D01*
X020261Y004754D01*
X020126Y004698D01*
X020022Y004594D01*
X019966Y004459D01*
X019966Y004312D01*
X020022Y004177D01*
X020126Y004074D01*
X020261Y004018D01*
X020408Y004018D01*
X020543Y004074D01*
X020595Y004126D01*
X021272Y004126D01*
X021272Y004076D01*
X021315Y004032D01*
X021308Y004025D01*
X021284Y003984D01*
X021272Y003938D01*
X021272Y003716D01*
X021630Y003716D01*
X021630Y003679D01*
X021667Y003679D01*
X021667Y003301D01*
X021869Y003301D01*
X021915Y003313D01*
X021956Y003337D01*
X021989Y003371D01*
X022013Y003412D01*
X022025Y003457D01*
X022025Y003679D01*
X021667Y003679D01*
X021667Y003716D01*
X022025Y003716D01*
X022025Y003740D01*
X022047Y003731D01*
X023502Y003731D01*
X023554Y003753D01*
X023971Y003753D01*
X024077Y003858D01*
X024077Y004350D01*
X024120Y004333D01*
X024266Y004333D01*
X024401Y004389D01*
X024505Y004492D01*
X024561Y004627D01*
X024561Y004774D01*
X024505Y004909D01*
X024401Y005013D01*
X024266Y005069D01*
X024120Y005069D01*
X024077Y005051D01*
X024077Y005149D01*
X024072Y005153D01*
X024077Y005169D01*
X024077Y005291D01*
X023442Y005291D01*
X022839Y005291D01*
X023442Y005291D01*
X023442Y005291D01*
X023442Y005291D01*
X023442Y005255D01*
X023442Y005255D01*
X023442Y005291D01*
X023442Y005291D01*
X023442Y005570D01*
X022964Y005570D01*
X022918Y005557D01*
X022877Y005534D01*
X022844Y005500D01*
X022820Y005459D01*
X022808Y005413D01*
X022808Y005323D01*
X022750Y005381D01*
X022750Y005483D01*
X022694Y005618D01*
X022590Y005721D01*
X022455Y005777D01*
X022353Y005777D01*
X022180Y005951D01*
X022180Y006412D01*
X022074Y006517D01*
X021532Y006517D01*
X021468Y006454D01*
X021405Y006517D01*
X020862Y006517D01*
X020811Y006466D01*
X020804Y006484D01*
X020701Y006588D01*
X020565Y006644D01*
X020419Y006644D01*
X020306Y006597D01*
X020306Y007010D01*
X020201Y007116D01*
X019602Y007116D01*
X019518Y007032D01*
X019514Y007041D01*
X019362Y007194D01*
X019442Y007275D01*
X019442Y007806D01*
X019468Y007832D01*
X019476Y007824D01*
X019517Y007801D01*
X019563Y007788D01*
X019785Y007788D01*
X019785Y008147D01*
X019821Y008147D01*
X019821Y007788D01*
X020043Y007788D01*
X020089Y007801D01*
X020130Y007824D01*
X020164Y007858D01*
X020187Y007899D01*
X020200Y007945D01*
X020200Y008147D01*
X019821Y008147D01*
X019821Y008184D01*
X019785Y008184D01*
X019785Y008542D01*
X019563Y008542D01*
X019517Y008530D01*
X019476Y008506D01*
X019468Y008499D01*
X019425Y008542D01*
X018843Y008542D01*
X018766Y008465D01*
X017361Y008465D01*
X017251Y008420D01*
X017167Y008335D01*
X016746Y007914D01*
X008681Y007914D01*
X008571Y007868D01*
X007915Y007212D01*
X007671Y007212D01*
X007628Y007169D01*
X007620Y007176D01*
X007579Y007200D01*
X007533Y007212D01*
X007312Y007212D01*
X007312Y006854D01*
X007275Y006854D01*
X007275Y007212D01*
X007053Y007212D01*
X007007Y007200D01*
X006966Y007176D01*
X006933Y007143D01*
X006909Y007102D01*
X006897Y007056D01*
X006897Y006854D01*
X007275Y006854D01*
X007275Y006817D01*
X007312Y006817D01*
X007312Y006459D01*
X007533Y006459D01*
X007579Y006471D01*
X007620Y006495D01*
X007628Y006502D01*
X007671Y006459D01*
X007745Y006459D01*
X007745Y006297D01*
X007390Y006297D01*
X007386Y006292D01*
X007370Y006297D01*
X007277Y006297D01*
X007185Y006297D01*
X007169Y006292D01*
X007165Y006297D01*
X005343Y006297D01*
X005238Y006191D01*
X005238Y005591D01*
X005201Y005591D01*
X005201Y006685D01*
X005214Y006697D01*
X005270Y006832D01*
X005270Y006979D01*
X005214Y007114D01*
X005110Y007217D01*
X004975Y007274D01*
X004828Y007274D01*
X004693Y007217D01*
X004589Y007114D01*
X004533Y006979D01*
X004533Y006883D01*
X004449Y006967D01*
X003355Y006967D01*
X003250Y006862D01*
X003250Y005925D01*
X003355Y005820D01*
X004449Y005820D01*
X004555Y005925D01*
X004555Y006780D01*
X004589Y006697D01*
X004601Y006685D01*
X004601Y005591D01*
X004065Y005591D01*
X004013Y005570D01*
X003596Y005570D01*
X003490Y005441D02*
X003344Y005441D01*
X003345Y005443D02*
X003280Y005286D01*
X003160Y005166D01*
X003003Y005101D01*
X002833Y005101D01*
X002676Y005166D01*
X002556Y005286D01*
X002491Y005443D01*
X002491Y005612D01*
X002556Y005769D01*
X002676Y005889D01*
X002833Y005954D01*
X003003Y005954D01*
X003160Y005889D01*
X003280Y005769D01*
X003345Y005612D01*
X003345Y005443D01*
X003345Y005599D02*
X004601Y005599D01*
X004601Y005758D02*
X003285Y005758D01*
X003259Y005916D02*
X003094Y005916D01*
X003250Y006075D02*
X002390Y006075D01*
X002390Y006233D02*
X003250Y006233D01*
X003250Y006392D02*
X002390Y006392D01*
X002390Y006550D02*
X003250Y006550D01*
X003250Y006709D02*
X002390Y006709D01*
X002390Y006862D02*
X002284Y006967D01*
X001190Y006967D01*
X001085Y006862D01*
X001085Y005925D01*
X001190Y005820D01*
X002284Y005820D01*
X002390Y005925D01*
X002390Y006862D01*
X002384Y006867D02*
X003256Y006867D01*
X004553Y007026D02*
X000879Y007026D01*
X000879Y007184D02*
X004660Y007184D01*
X005143Y007184D02*
X006980Y007184D01*
X006897Y007026D02*
X005250Y007026D01*
X005270Y006867D02*
X006897Y006867D01*
X006897Y006817D02*
X006897Y006615D01*
X006909Y006569D01*
X006933Y006528D01*
X006966Y006495D01*
X007007Y006471D01*
X007053Y006459D01*
X007275Y006459D01*
X007275Y006817D01*
X006897Y006817D01*
X006897Y006709D02*
X005219Y006709D01*
X005201Y006550D02*
X006920Y006550D01*
X007275Y006550D02*
X007312Y006550D01*
X007312Y006709D02*
X007275Y006709D01*
X007275Y006867D02*
X007312Y006867D01*
X007312Y007026D02*
X007275Y007026D01*
X007275Y007184D02*
X007312Y007184D01*
X007606Y007184D02*
X007643Y007184D01*
X008046Y007343D02*
X000879Y007343D01*
X000879Y007501D02*
X008204Y007501D01*
X008363Y007660D02*
X000879Y007660D01*
X000879Y007818D02*
X008521Y007818D01*
X008865Y007314D02*
X016930Y007314D01*
X017040Y007360D01*
X017124Y007444D01*
X017545Y007865D01*
X017605Y007865D01*
X017605Y007275D01*
X017710Y007170D01*
X018776Y007170D01*
X018776Y007153D01*
X018812Y007065D01*
X018880Y006997D01*
X019071Y006806D01*
X019071Y005666D01*
X019049Y005644D01*
X019049Y005719D01*
X018993Y005854D01*
X018921Y005926D01*
X018970Y006045D01*
X018970Y006191D01*
X018914Y006327D01*
X018811Y006430D01*
X018675Y006486D01*
X018529Y006486D01*
X018394Y006430D01*
X018290Y006327D01*
X018234Y006191D01*
X018234Y006075D01*
X017666Y006075D01*
X017636Y006105D02*
X017703Y006037D01*
X017715Y006026D01*
X017782Y005959D01*
X017819Y005870D01*
X017819Y005440D01*
X017782Y005352D01*
X017715Y005285D01*
X017478Y005048D01*
X017390Y005012D01*
X017048Y005012D01*
X016750Y004713D01*
X017595Y004713D01*
X017595Y004867D01*
X017605Y004891D01*
X017605Y005118D01*
X017710Y005224D01*
X018195Y005224D01*
X018195Y005255D01*
X018057Y005393D01*
X018057Y005898D01*
X018192Y006033D01*
X018234Y006075D01*
X018252Y006233D02*
X017551Y006233D01*
X017551Y006140D02*
X017551Y007010D01*
X017445Y007116D01*
X016846Y007116D01*
X016741Y007010D01*
X016741Y006535D01*
X016448Y006535D01*
X016360Y006499D01*
X015826Y005964D01*
X014775Y005964D01*
X014754Y005955D01*
X014754Y006615D01*
X014648Y006720D01*
X013180Y006720D01*
X013180Y006789D01*
X013143Y006877D01*
X012833Y007188D01*
X012744Y007224D01*
X009027Y007224D01*
X008939Y007188D01*
X008871Y007120D01*
X008359Y006608D01*
X008359Y006808D01*
X008865Y007314D01*
X008936Y007184D02*
X008736Y007184D01*
X008777Y007026D02*
X008577Y007026D01*
X008619Y006867D02*
X008419Y006867D01*
X008460Y006709D02*
X008359Y006709D01*
X007745Y006392D02*
X005201Y006392D01*
X005201Y006233D02*
X005280Y006233D01*
X005238Y006075D02*
X005201Y006075D01*
X005201Y005916D02*
X005238Y005916D01*
X005238Y005758D02*
X005201Y005758D01*
X005201Y005599D02*
X005238Y005599D01*
X004601Y005916D02*
X004546Y005916D01*
X004555Y006075D02*
X004601Y006075D01*
X004601Y006233D02*
X004555Y006233D01*
X004555Y006392D02*
X004601Y006392D01*
X004601Y006550D02*
X004555Y006550D01*
X004555Y006709D02*
X004584Y006709D01*
X002742Y005916D02*
X002381Y005916D01*
X002552Y005758D02*
X000879Y005758D01*
X000879Y005599D02*
X002491Y005599D01*
X002492Y005441D02*
X000879Y005441D01*
X000879Y005282D02*
X002560Y005282D01*
X002777Y005124D02*
X000879Y005124D01*
X000879Y004965D02*
X003490Y004965D01*
X003490Y004807D02*
X000879Y004807D01*
X000879Y004648D02*
X003490Y004648D01*
X003490Y004490D02*
X000879Y004490D01*
X000879Y004331D02*
X003490Y004331D01*
X003491Y004173D02*
X003122Y004173D01*
X003160Y004157D02*
X003003Y004222D01*
X002833Y004222D01*
X002676Y004157D01*
X002556Y004037D01*
X002491Y003880D01*
X002491Y003710D01*
X002556Y003553D01*
X002676Y003433D01*
X002833Y003368D01*
X003003Y003368D01*
X003160Y003433D01*
X003280Y003553D01*
X003345Y003710D01*
X003345Y003880D01*
X003280Y004037D01*
X003160Y004157D01*
X003289Y004014D02*
X003490Y004014D01*
X003507Y003856D02*
X003345Y003856D01*
X003340Y003697D02*
X005222Y003697D01*
X005226Y003539D02*
X003266Y003539D01*
X003355Y003503D02*
X003250Y003397D01*
X003250Y002461D01*
X003355Y002355D01*
X004449Y002355D01*
X004555Y002461D01*
X004555Y003397D01*
X004449Y003503D01*
X003355Y003503D01*
X003250Y003380D02*
X003032Y003380D01*
X002804Y003380D02*
X002390Y003380D01*
X002390Y003397D02*
X002284Y003503D01*
X001190Y003503D01*
X001085Y003397D01*
X001085Y002461D01*
X001190Y002355D01*
X002284Y002355D01*
X002390Y002461D01*
X002390Y003397D01*
X002390Y003222D02*
X003250Y003222D01*
X003250Y003063D02*
X002390Y003063D01*
X002390Y002905D02*
X003250Y002905D01*
X003250Y002746D02*
X002390Y002746D01*
X002390Y002588D02*
X003250Y002588D01*
X003281Y002429D02*
X002358Y002429D01*
X001116Y002429D02*
X000879Y002429D01*
X000879Y002271D02*
X005674Y002271D01*
X005674Y002112D02*
X000879Y002112D01*
X000879Y001954D02*
X005674Y001954D01*
X005674Y001795D02*
X000879Y001795D01*
X000879Y001637D02*
X005708Y001637D01*
X005674Y001478D02*
X000879Y001478D01*
X000879Y001320D02*
X005674Y001320D01*
X005674Y001161D02*
X000879Y001161D01*
X000879Y001003D02*
X005731Y001003D01*
X006410Y001003D02*
X026364Y001003D01*
X026364Y000914D02*
X026361Y000883D01*
X026338Y000827D01*
X026295Y000784D01*
X026239Y000760D01*
X026208Y000757D01*
X000879Y000757D01*
X000879Y008461D01*
X000881Y008481D01*
X000897Y008519D01*
X000926Y008548D01*
X000963Y008563D01*
X000984Y008565D01*
X026198Y008565D01*
X026231Y008562D01*
X026291Y008537D01*
X026336Y008491D01*
X026361Y008431D01*
X026364Y008399D01*
X026364Y006967D01*
X025283Y006967D01*
X025177Y006862D01*
X025177Y005925D01*
X025283Y005820D01*
X026364Y005820D01*
X026364Y003503D01*
X025283Y003503D01*
X025177Y003397D01*
X025177Y002461D01*
X025283Y002355D01*
X026364Y002355D01*
X026364Y000914D01*
X026345Y000844D02*
X000879Y000844D01*
X004524Y002429D02*
X005758Y002429D01*
X006238Y002429D02*
X007037Y002429D01*
X007037Y002393D02*
X006944Y002299D01*
X006714Y002299D01*
X006608Y002194D01*
X006608Y001729D01*
X006672Y001666D01*
X006608Y001603D01*
X006608Y001572D01*
X006467Y001572D01*
X006467Y001603D01*
X006404Y001666D01*
X006467Y001729D01*
X006467Y002272D01*
X006362Y002378D01*
X006238Y002378D01*
X006238Y002508D01*
X006254Y002508D01*
X006346Y002508D01*
X006362Y002512D01*
X006367Y002508D01*
X006909Y002508D01*
X006913Y002512D01*
X006929Y002508D01*
X007022Y002508D01*
X007037Y002508D01*
X007037Y002393D01*
X007022Y002508D02*
X007022Y002901D01*
X007022Y002901D01*
X007022Y002508D01*
X007022Y002588D02*
X007022Y002588D01*
X007022Y002746D02*
X007022Y002746D01*
X006766Y002963D02*
X006766Y004865D01*
X006379Y005252D01*
X006648Y005387D02*
X006653Y005387D01*
X007165Y005387D01*
X007169Y005391D01*
X007185Y005387D01*
X007277Y005387D01*
X007277Y005842D01*
X007277Y006297D01*
X007277Y005842D01*
X007277Y005842D01*
X007277Y005842D01*
X007277Y005387D01*
X007370Y005387D01*
X007386Y005391D01*
X007390Y005387D01*
X007549Y005387D01*
X007549Y004224D01*
X007530Y004224D01*
X007395Y004168D01*
X007291Y004065D01*
X007235Y003929D01*
X007235Y003783D01*
X007291Y003648D01*
X007395Y003544D01*
X007530Y003488D01*
X007676Y003488D01*
X007812Y003544D01*
X007915Y003648D01*
X007971Y003783D01*
X007971Y003885D01*
X007993Y003906D01*
X008029Y003994D01*
X008029Y004655D01*
X008031Y004653D01*
X008031Y004579D01*
X008087Y004444D01*
X008191Y004340D01*
X008326Y004284D01*
X008473Y004284D01*
X008608Y004340D01*
X008660Y004392D01*
X009374Y004392D01*
X009457Y004427D01*
X009729Y004427D01*
X009729Y004390D01*
X009371Y004390D01*
X009371Y004168D01*
X009383Y004122D01*
X009407Y004081D01*
X009441Y004048D01*
X009482Y004024D01*
X009527Y004012D01*
X009729Y004012D01*
X009729Y004390D01*
X009766Y004390D01*
X009766Y004012D01*
X009968Y004012D01*
X010014Y004024D01*
X010055Y004048D01*
X010089Y004081D01*
X010112Y004122D01*
X010125Y004168D01*
X010125Y004390D01*
X009766Y004390D01*
X009766Y004427D01*
X010125Y004427D01*
X010125Y004649D01*
X010112Y004694D01*
X010089Y004735D01*
X010081Y004743D01*
X010125Y004787D01*
X010125Y004847D01*
X010150Y004857D01*
X010299Y005006D01*
X010299Y003532D01*
X010217Y003532D01*
X010129Y003496D01*
X010061Y003428D01*
X009446Y002813D01*
X009409Y002725D01*
X009409Y002456D01*
X009358Y002456D01*
X009253Y002351D01*
X009253Y001808D01*
X009316Y001745D01*
X009253Y001682D01*
X009253Y001611D01*
X008604Y001611D01*
X008549Y001666D01*
X008576Y001693D01*
X008600Y001735D01*
X008612Y001780D01*
X008612Y001961D01*
X008275Y001961D01*
X008275Y001962D01*
X008274Y001962D02*
X008274Y001962D01*
X008274Y002299D01*
X008093Y002299D01*
X008048Y002287D01*
X008006Y002263D01*
X007973Y002229D01*
X007965Y002216D01*
X007882Y002299D01*
X007773Y002299D01*
X007773Y002508D01*
X007932Y002508D01*
X007937Y002512D01*
X007953Y002508D01*
X008045Y002508D01*
X008045Y002963D01*
X008045Y002963D01*
X008045Y003418D01*
X007953Y003418D01*
X007937Y003414D01*
X007932Y003418D01*
X007134Y003418D01*
X007130Y003414D01*
X007114Y003418D01*
X007026Y003418D01*
X007026Y004917D01*
X006986Y005012D01*
X006673Y005325D01*
X006648Y005387D01*
X006716Y005282D02*
X007549Y005282D01*
X007549Y005124D02*
X006874Y005124D01*
X007005Y004965D02*
X007549Y004965D01*
X007549Y004807D02*
X007026Y004807D01*
X007026Y004648D02*
X007549Y004648D01*
X007549Y004490D02*
X007026Y004490D01*
X007026Y004331D02*
X007549Y004331D01*
X007406Y004173D02*
X007026Y004173D01*
X007026Y004014D02*
X007270Y004014D01*
X007235Y003856D02*
X007026Y003856D01*
X007026Y003697D02*
X007271Y003697D01*
X007407Y003539D02*
X007026Y003539D01*
X006506Y003539D02*
X006258Y003539D01*
X006258Y003418D02*
X006258Y004097D01*
X006274Y004113D01*
X006348Y004113D01*
X006483Y004169D01*
X006506Y004192D01*
X006506Y003418D01*
X006367Y003418D01*
X006362Y003414D01*
X006346Y003418D01*
X006258Y003418D01*
X006258Y003697D02*
X006506Y003697D01*
X006506Y003856D02*
X006258Y003856D01*
X006258Y004014D02*
X006506Y004014D01*
X006506Y004173D02*
X006487Y004173D01*
X006274Y004481D02*
X005998Y004205D01*
X005998Y002963D01*
X005742Y002963D02*
X005742Y003939D01*
X004705Y004976D01*
X004124Y004976D01*
X003490Y005124D02*
X003059Y005124D01*
X003277Y005282D02*
X003490Y005282D01*
X004124Y004661D02*
X004626Y004661D01*
X005486Y003801D01*
X005486Y002963D01*
X005229Y002905D02*
X004555Y002905D01*
X004555Y003063D02*
X005226Y003063D01*
X005226Y003222D02*
X004555Y003222D01*
X004555Y003380D02*
X005226Y003380D01*
X005064Y003856D02*
X004742Y003856D01*
X004759Y004014D02*
X004905Y004014D01*
X004124Y004014D02*
X004124Y004014D01*
X004124Y003856D02*
X004124Y003856D01*
X002715Y004173D02*
X000879Y004173D01*
X000879Y004014D02*
X002547Y004014D01*
X002491Y003856D02*
X000879Y003856D01*
X000879Y003697D02*
X002497Y003697D01*
X002571Y003539D02*
X000879Y003539D01*
X000879Y003380D02*
X001085Y003380D01*
X001085Y003222D02*
X000879Y003222D01*
X000879Y003063D02*
X001085Y003063D01*
X001085Y002905D02*
X000879Y002905D01*
X000879Y002746D02*
X001085Y002746D01*
X001085Y002588D02*
X000879Y002588D01*
X004555Y002588D02*
X005263Y002588D01*
X005238Y002746D02*
X004555Y002746D01*
X006254Y002746D02*
X006254Y002746D01*
X006254Y002588D02*
X006254Y002588D01*
X006254Y002508D02*
X006254Y002901D01*
X006254Y002901D01*
X006254Y002508D01*
X006467Y002271D02*
X006686Y002271D01*
X006608Y002112D02*
X006467Y002112D01*
X006467Y001954D02*
X006608Y001954D01*
X006608Y001795D02*
X006467Y001795D01*
X006433Y001637D02*
X006642Y001637D01*
X008274Y001962D02*
X008274Y002299D01*
X008456Y002299D01*
X008501Y002287D01*
X008542Y002263D01*
X008576Y002229D01*
X008600Y002188D01*
X008612Y002143D01*
X008612Y001962D01*
X008275Y001962D01*
X008274Y002112D02*
X008274Y002112D01*
X008274Y002271D02*
X008274Y002271D01*
X008020Y002271D02*
X007910Y002271D01*
X007773Y002429D02*
X009331Y002429D01*
X009061Y002614D02*
X008956Y002508D01*
X008414Y002508D01*
X008410Y002512D01*
X008393Y002508D01*
X008301Y002508D01*
X008301Y002963D01*
X008045Y002963D01*
X008045Y002963D01*
X008045Y002508D01*
X008137Y002508D01*
X008173Y002518D01*
X008209Y002508D01*
X008301Y002508D01*
X008301Y002963D01*
X008301Y002963D01*
X008301Y002963D01*
X008294Y002963D01*
X008045Y002963D01*
X008045Y002963D01*
X008045Y003418D01*
X008137Y003418D01*
X008173Y003408D01*
X008209Y003418D01*
X008301Y003418D01*
X008301Y002963D01*
X008301Y002963D01*
X008301Y003418D01*
X008393Y003418D01*
X008410Y003414D01*
X008414Y003418D01*
X008956Y003418D01*
X009061Y003313D01*
X009061Y002614D01*
X009036Y002588D02*
X009409Y002588D01*
X009418Y002746D02*
X009061Y002746D01*
X009061Y002905D02*
X009538Y002905D01*
X009696Y003063D02*
X009061Y003063D01*
X009061Y003222D02*
X009855Y003222D01*
X010013Y003380D02*
X008994Y003380D01*
X008301Y003380D02*
X008301Y003380D01*
X008045Y003380D02*
X008045Y003380D01*
X008045Y003222D02*
X008045Y003222D01*
X008045Y003063D02*
X008045Y003063D01*
X008301Y003063D02*
X008301Y003063D01*
X008301Y003222D02*
X008301Y003222D01*
X008301Y002905D02*
X008301Y002905D01*
X008045Y002905D02*
X008045Y002905D01*
X008045Y002746D02*
X008045Y002746D01*
X008045Y002588D02*
X008045Y002588D01*
X008301Y002588D02*
X008301Y002588D01*
X008301Y002746D02*
X008301Y002746D01*
X008529Y002271D02*
X009253Y002271D01*
X009253Y002112D02*
X008612Y002112D01*
X008612Y001954D02*
X009253Y001954D01*
X009266Y001795D02*
X008612Y001795D01*
X008578Y001637D02*
X009253Y001637D01*
X010046Y001637D02*
X011323Y001637D01*
X011323Y001795D02*
X010033Y001795D01*
X010046Y001954D02*
X011323Y001954D01*
X011387Y002112D02*
X010046Y002112D01*
X010046Y002271D02*
X010399Y002271D01*
X010299Y002429D02*
X009968Y002429D01*
X009900Y002588D02*
X010299Y002588D01*
X010299Y002746D02*
X010058Y002746D01*
X010217Y002905D02*
X010299Y002905D01*
X011210Y002746D02*
X011327Y002746D01*
X011439Y002588D02*
X011210Y002588D01*
X011210Y002429D02*
X011482Y002429D01*
X011654Y002271D02*
X011110Y002271D01*
X011960Y002271D02*
X012306Y002271D01*
X012306Y002429D02*
X012132Y002429D01*
X012175Y002588D02*
X012306Y002588D01*
X012306Y002746D02*
X012147Y002746D01*
X012029Y002905D02*
X012306Y002905D01*
X012306Y003063D02*
X011689Y003063D01*
X011531Y003222D02*
X012231Y003222D01*
X012146Y003380D02*
X011210Y003380D01*
X011210Y003539D02*
X012144Y003539D01*
X012225Y003697D02*
X011210Y003697D01*
X011210Y003856D02*
X012565Y003856D01*
X013881Y003856D02*
X014866Y003856D01*
X014866Y003697D02*
X014039Y003697D01*
X014198Y003539D02*
X014866Y003539D01*
X014866Y003380D02*
X014356Y003380D01*
X014515Y003222D02*
X014866Y003222D01*
X014866Y003063D02*
X014673Y003063D01*
X014832Y002905D02*
X014866Y002905D01*
X014312Y002746D02*
X014282Y002746D01*
X014440Y002588D02*
X014470Y002588D01*
X014599Y002429D02*
X014629Y002429D01*
X014734Y002271D02*
X014830Y002271D01*
X014755Y002112D02*
X015746Y002112D01*
X015746Y002271D02*
X015677Y002271D01*
X015777Y002429D02*
X018118Y002429D01*
X018276Y002588D02*
X015777Y002588D01*
X015777Y002746D02*
X018303Y002746D01*
X018303Y002905D02*
X015886Y002905D01*
X016108Y003063D02*
X018303Y003063D01*
X017892Y003222D02*
X017855Y003222D01*
X017508Y003222D02*
X016238Y003222D01*
X016244Y003380D02*
X017477Y003380D01*
X017855Y003380D02*
X017892Y003380D01*
X017892Y003539D02*
X017855Y003539D01*
X017855Y003538D02*
X017855Y003896D01*
X017634Y003896D01*
X017588Y003884D01*
X017547Y003860D01*
X017513Y003827D01*
X017490Y003786D01*
X017477Y003740D01*
X017477Y003538D01*
X017855Y003538D01*
X017477Y003539D02*
X016244Y003539D01*
X016244Y003697D02*
X017477Y003697D01*
X017855Y003697D02*
X017892Y003697D01*
X017892Y003856D02*
X017855Y003856D01*
X017542Y003856D02*
X016244Y003856D01*
X014866Y004014D02*
X011210Y004014D01*
X011210Y004173D02*
X014866Y004173D01*
X014866Y004331D02*
X011210Y004331D01*
X011210Y004490D02*
X014866Y004490D01*
X014866Y004648D02*
X011210Y004648D01*
X011210Y004807D02*
X014068Y004807D01*
X013907Y004965D02*
X011210Y004965D01*
X011210Y005124D02*
X013855Y005124D01*
X013866Y005282D02*
X011210Y005282D01*
X011210Y005441D02*
X013951Y005441D01*
X014358Y005599D02*
X011236Y005599D01*
X011395Y005758D02*
X014517Y005758D01*
X014754Y006075D02*
X015936Y006075D01*
X016095Y006233D02*
X014754Y006233D01*
X014754Y006392D02*
X016253Y006392D01*
X016741Y006550D02*
X014754Y006550D01*
X014660Y006709D02*
X016741Y006709D01*
X016741Y006867D02*
X013147Y006867D01*
X012994Y007026D02*
X016756Y007026D01*
X016999Y007343D02*
X017605Y007343D01*
X017605Y007501D02*
X017182Y007501D01*
X017340Y007660D02*
X017605Y007660D01*
X017605Y007818D02*
X017499Y007818D01*
X016967Y008135D02*
X000879Y008135D01*
X000879Y007977D02*
X016809Y007977D01*
X017126Y008294D02*
X000879Y008294D01*
X000879Y008452D02*
X017331Y008452D01*
X019455Y007818D02*
X019486Y007818D01*
X019785Y007818D02*
X019821Y007818D01*
X020120Y007818D02*
X022245Y007818D01*
X022146Y007719D02*
X022019Y007412D01*
X022019Y007080D01*
X022146Y006773D01*
X022381Y006538D01*
X022688Y006411D01*
X023012Y006411D01*
X023012Y005925D01*
X023117Y005820D01*
X024211Y005820D01*
X024317Y005925D01*
X024317Y006862D01*
X024211Y006967D01*
X023642Y006967D01*
X023689Y007080D01*
X023689Y007412D01*
X023562Y007719D01*
X023327Y007954D01*
X023020Y008081D01*
X022688Y008081D01*
X022381Y007954D01*
X022146Y007719D01*
X022122Y007660D02*
X019442Y007660D01*
X019442Y007501D02*
X022056Y007501D01*
X022019Y007343D02*
X019442Y007343D01*
X019371Y007184D02*
X022019Y007184D01*
X022042Y007026D02*
X020291Y007026D01*
X020306Y006867D02*
X022107Y006867D01*
X022211Y006709D02*
X020306Y006709D01*
X020738Y006550D02*
X022369Y006550D01*
X022180Y006392D02*
X023012Y006392D01*
X023012Y006233D02*
X022180Y006233D01*
X022180Y006075D02*
X023012Y006075D01*
X023021Y005916D02*
X022214Y005916D01*
X022502Y005758D02*
X024282Y005758D01*
X024287Y005769D02*
X024222Y005612D01*
X024222Y005443D01*
X024287Y005286D01*
X024407Y005166D01*
X024564Y005101D01*
X024733Y005101D01*
X024890Y005166D01*
X025010Y005286D01*
X025075Y005443D01*
X025075Y005612D01*
X025010Y005769D01*
X024890Y005889D01*
X024733Y005954D01*
X024564Y005954D01*
X024407Y005889D01*
X024287Y005769D01*
X024222Y005599D02*
X022701Y005599D01*
X022750Y005441D02*
X022815Y005441D01*
X022839Y005291D02*
X022839Y005291D01*
X023442Y005291D02*
X023442Y005291D01*
X024077Y005291D01*
X024077Y005413D01*
X024064Y005459D01*
X024041Y005500D01*
X024007Y005534D01*
X023966Y005557D01*
X023920Y005570D01*
X023442Y005570D01*
X023442Y005291D01*
X023442Y005282D02*
X023442Y005282D01*
X023442Y005441D02*
X023442Y005441D01*
X024069Y005441D02*
X024222Y005441D01*
X024290Y005282D02*
X024077Y005282D01*
X024077Y005124D02*
X024507Y005124D01*
X024790Y005124D02*
X026364Y005124D01*
X026364Y005282D02*
X025007Y005282D01*
X025075Y005441D02*
X026364Y005441D01*
X026364Y005599D02*
X025075Y005599D01*
X025015Y005758D02*
X026364Y005758D01*
X025186Y005916D02*
X024825Y005916D01*
X024472Y005916D02*
X024308Y005916D01*
X024317Y006075D02*
X025177Y006075D01*
X025177Y006233D02*
X024317Y006233D01*
X024317Y006392D02*
X025177Y006392D01*
X025177Y006550D02*
X024317Y006550D01*
X024317Y006709D02*
X025177Y006709D01*
X025183Y006867D02*
X024311Y006867D01*
X023667Y007026D02*
X026364Y007026D01*
X026364Y007184D02*
X023689Y007184D01*
X023689Y007343D02*
X026364Y007343D01*
X026364Y007501D02*
X023652Y007501D01*
X023587Y007660D02*
X026364Y007660D01*
X026364Y007818D02*
X023463Y007818D01*
X023272Y007977D02*
X026364Y007977D01*
X026364Y008135D02*
X020200Y008135D01*
X020200Y008184D02*
X020200Y008386D01*
X020187Y008432D01*
X020164Y008473D01*
X020130Y008506D01*
X020089Y008530D01*
X020043Y008542D01*
X019821Y008542D01*
X019821Y008184D01*
X020200Y008184D01*
X020200Y008294D02*
X026364Y008294D01*
X026352Y008452D02*
X020175Y008452D01*
X019821Y008452D02*
X019785Y008452D01*
X019785Y008294D02*
X019821Y008294D01*
X019821Y008135D02*
X019785Y008135D01*
X019785Y007977D02*
X019821Y007977D01*
X020200Y007977D02*
X022436Y007977D01*
X019009Y006867D02*
X017551Y006867D01*
X017551Y006709D02*
X019071Y006709D01*
X019071Y006550D02*
X017551Y006550D01*
X017551Y006392D02*
X018356Y006392D01*
X018849Y006392D02*
X019071Y006392D01*
X019071Y006233D02*
X018953Y006233D01*
X018970Y006075D02*
X019071Y006075D01*
X019071Y005916D02*
X018931Y005916D01*
X019033Y005758D02*
X019071Y005758D01*
X018075Y005916D02*
X017800Y005916D01*
X017819Y005758D02*
X018057Y005758D01*
X018057Y005599D02*
X017819Y005599D01*
X017819Y005441D02*
X018057Y005441D01*
X018168Y005282D02*
X017712Y005282D01*
X017610Y005124D02*
X017554Y005124D01*
X017605Y004965D02*
X017002Y004965D01*
X016843Y004807D02*
X017595Y004807D01*
X018178Y004173D02*
X018234Y004173D01*
X018295Y004014D02*
X018019Y004014D01*
X018018Y004014D02*
X018018Y004014D01*
X018205Y003856D02*
X018212Y003856D01*
X018940Y003539D02*
X019210Y003539D01*
X019210Y003697D02*
X019108Y003697D01*
X019210Y003380D02*
X018940Y003380D01*
X018914Y003222D02*
X019236Y003222D01*
X019366Y003063D02*
X018783Y003063D01*
X018783Y002905D02*
X019366Y002905D01*
X019846Y002905D02*
X022673Y002905D01*
X022688Y002911D02*
X022381Y002784D01*
X022146Y002549D01*
X022019Y002242D01*
X022019Y001910D01*
X022146Y001603D01*
X022381Y001368D01*
X022688Y001241D01*
X023020Y001241D01*
X023327Y001368D01*
X023562Y001603D01*
X023689Y001910D01*
X023689Y002242D01*
X023642Y002355D01*
X024211Y002355D01*
X024317Y002461D01*
X024317Y003397D01*
X024211Y003503D01*
X023117Y003503D01*
X023012Y003397D01*
X023012Y002911D01*
X022688Y002911D01*
X023012Y003063D02*
X019846Y003063D01*
X020257Y003222D02*
X020294Y003222D01*
X020294Y003143D02*
X020516Y003143D01*
X020561Y003155D01*
X020603Y003179D01*
X020636Y003212D01*
X020660Y003253D01*
X020672Y003299D01*
X020672Y003501D01*
X020294Y003501D01*
X020294Y003143D01*
X020642Y003222D02*
X023012Y003222D01*
X023012Y003380D02*
X021995Y003380D01*
X021667Y003380D02*
X021630Y003380D01*
X021630Y003301D02*
X021428Y003301D01*
X021382Y003313D01*
X021341Y003337D01*
X021308Y003371D01*
X021284Y003412D01*
X021272Y003457D01*
X021272Y003679D01*
X021630Y003679D01*
X021630Y003301D01*
X021302Y003380D02*
X020672Y003380D01*
X020294Y003380D02*
X020257Y003380D01*
X020257Y003539D02*
X020294Y003539D01*
X020672Y003539D02*
X021272Y003539D01*
X021630Y003539D02*
X021667Y003539D01*
X022025Y003539D02*
X024301Y003539D01*
X024287Y003553D02*
X024407Y003433D01*
X024564Y003368D01*
X024733Y003368D01*
X024890Y003433D01*
X025010Y003553D01*
X025075Y003710D01*
X025075Y003880D01*
X025010Y004037D01*
X024890Y004157D01*
X024733Y004222D01*
X024564Y004222D01*
X024407Y004157D01*
X024287Y004037D01*
X024222Y003880D01*
X024222Y003710D01*
X024287Y003553D01*
X024227Y003697D02*
X021667Y003697D01*
X021630Y003697D02*
X020672Y003697D01*
X020294Y003697D02*
X020257Y003697D01*
X020257Y003856D02*
X020294Y003856D01*
X020607Y003856D02*
X021272Y003856D01*
X021302Y004014D02*
X019708Y004014D01*
X019708Y004173D02*
X020027Y004173D01*
X019966Y004331D02*
X019708Y004331D01*
X019708Y004490D02*
X019979Y004490D01*
X020335Y004386D02*
X021630Y004386D01*
X021649Y004367D01*
X022072Y004490D02*
X022151Y004490D01*
X022092Y004648D02*
X022025Y004648D01*
X022015Y004807D02*
X019708Y004807D01*
X019708Y004648D02*
X020077Y004648D01*
X020592Y004648D02*
X021272Y004648D01*
X021443Y004965D02*
X021493Y004965D01*
X020824Y004965D02*
X019708Y004965D01*
X019708Y005124D02*
X020757Y005124D01*
X020597Y005282D02*
X020206Y005282D01*
X017636Y006105D02*
X017551Y006140D01*
X017535Y007026D02*
X018851Y007026D01*
X017695Y007184D02*
X012836Y007184D01*
X011913Y006265D02*
X011802Y006265D01*
X011802Y006265D01*
X011913Y006265D01*
X011913Y006265D01*
X011956Y005872D02*
X011956Y005872D01*
X011956Y005809D01*
X011956Y005872D01*
X011956Y005872D01*
X011759Y005872D02*
X011759Y005809D01*
X011759Y005872D01*
X011759Y005872D01*
X011759Y005872D01*
X010383Y005458D02*
X010003Y005078D01*
X009748Y005078D01*
X009323Y004652D01*
X008399Y004652D01*
X008045Y005007D01*
X008045Y005842D01*
X008051Y005848D01*
X008051Y006275D01*
X007277Y006233D02*
X007277Y006233D01*
X007277Y006075D02*
X007277Y006075D01*
X007277Y005916D02*
X007277Y005916D01*
X007277Y005758D02*
X007277Y005758D01*
X007277Y005599D02*
X007277Y005599D01*
X007277Y005441D02*
X007277Y005441D01*
X006460Y004803D02*
X006305Y004958D01*
X006224Y004991D01*
X005057Y004991D01*
X005754Y004295D01*
X005777Y004352D01*
X005906Y004481D01*
X005906Y004554D01*
X005962Y004690D01*
X006066Y004793D01*
X006201Y004849D01*
X006348Y004849D01*
X006460Y004803D01*
X006456Y004807D02*
X006450Y004807D01*
X006099Y004807D02*
X005242Y004807D01*
X005400Y004648D02*
X005945Y004648D01*
X005906Y004490D02*
X005559Y004490D01*
X005717Y004331D02*
X005769Y004331D01*
X006286Y004965D02*
X005083Y004965D01*
X008029Y004648D02*
X008031Y004648D01*
X008029Y004490D02*
X008068Y004490D01*
X008029Y004331D02*
X008213Y004331D01*
X008029Y004173D02*
X009371Y004173D01*
X009371Y004331D02*
X008586Y004331D01*
X008029Y004014D02*
X009518Y004014D01*
X009729Y004014D02*
X009766Y004014D01*
X009978Y004014D02*
X010299Y004014D01*
X010299Y003856D02*
X007971Y003856D01*
X007936Y003697D02*
X010299Y003697D01*
X010299Y003539D02*
X007799Y003539D01*
X009729Y004173D02*
X009766Y004173D01*
X009766Y004331D02*
X009729Y004331D01*
X010125Y004331D02*
X010299Y004331D01*
X010299Y004173D02*
X010125Y004173D01*
X010125Y004490D02*
X010299Y004490D01*
X010299Y004648D02*
X010125Y004648D01*
X010125Y004807D02*
X010299Y004807D01*
X010299Y004965D02*
X010258Y004965D01*
X009748Y005078D02*
X009748Y005094D01*
X009978Y005842D02*
X008813Y005842D01*
X009978Y005842D02*
X010011Y005875D01*
X014475Y004807D02*
X014866Y004807D01*
X014866Y004965D02*
X014636Y004965D01*
X014688Y005124D02*
X014866Y005124D01*
X014866Y005282D02*
X014720Y005282D01*
X019938Y003856D02*
X019944Y003856D01*
X019846Y002746D02*
X022343Y002746D01*
X022185Y002588D02*
X019952Y002588D01*
X020111Y002429D02*
X022097Y002429D01*
X022031Y002271D02*
X022006Y002271D01*
X022006Y002112D02*
X022019Y002112D01*
X022006Y001954D02*
X022019Y001954D01*
X022006Y001795D02*
X022067Y001795D01*
X022006Y001637D02*
X022132Y001637D01*
X022006Y001478D02*
X022271Y001478D01*
X022498Y001320D02*
X021943Y001320D01*
X023210Y001320D02*
X026364Y001320D01*
X026364Y001161D02*
X010046Y001161D01*
X010046Y001320D02*
X011350Y001320D01*
X011323Y001478D02*
X010046Y001478D01*
X013574Y002905D02*
X013682Y002905D01*
X013785Y003063D02*
X013995Y003063D01*
X014125Y002905D02*
X014153Y002905D01*
X014755Y001954D02*
X015746Y001954D01*
X015746Y001795D02*
X014755Y001795D01*
X014754Y001637D02*
X015746Y001637D01*
X015746Y001478D02*
X014754Y001478D01*
X014726Y001320D02*
X015809Y001320D01*
X018143Y001320D02*
X019609Y001320D01*
X019546Y001478D02*
X018206Y001478D01*
X018206Y001637D02*
X019546Y001637D01*
X019546Y001795D02*
X018206Y001795D01*
X018321Y001954D02*
X019546Y001954D01*
X019546Y002112D02*
X018479Y002112D01*
X018638Y002271D02*
X019546Y002271D01*
X019432Y002429D02*
X018767Y002429D01*
X018783Y002588D02*
X019366Y002588D01*
X019366Y002746D02*
X018783Y002746D01*
X023437Y001478D02*
X026364Y001478D01*
X026364Y001637D02*
X023576Y001637D01*
X023642Y001795D02*
X026364Y001795D01*
X026364Y001954D02*
X023689Y001954D01*
X023689Y002112D02*
X026364Y002112D01*
X026364Y002271D02*
X023677Y002271D01*
X024285Y002429D02*
X025208Y002429D01*
X025177Y002588D02*
X024317Y002588D01*
X024317Y002746D02*
X025177Y002746D01*
X025177Y002905D02*
X024317Y002905D01*
X024317Y003063D02*
X025177Y003063D01*
X025177Y003222D02*
X024317Y003222D01*
X024317Y003380D02*
X024534Y003380D01*
X024763Y003380D02*
X025177Y003380D01*
X024996Y003539D02*
X026364Y003539D01*
X026364Y003697D02*
X025070Y003697D01*
X025075Y003856D02*
X026364Y003856D01*
X026364Y004014D02*
X025020Y004014D01*
X024852Y004173D02*
X026364Y004173D01*
X026364Y004331D02*
X024077Y004331D01*
X024077Y004173D02*
X024445Y004173D01*
X024277Y004014D02*
X024077Y004014D01*
X024074Y003856D02*
X024222Y003856D01*
X024503Y004490D02*
X026364Y004490D01*
X026364Y004648D02*
X024561Y004648D01*
X024547Y004807D02*
X026364Y004807D01*
X026364Y004965D02*
X024449Y004965D01*
X001094Y005916D02*
X000879Y005916D01*
X000879Y006075D02*
X001085Y006075D01*
X001085Y006233D02*
X000879Y006233D01*
X000879Y006392D02*
X001085Y006392D01*
X001085Y006550D02*
X000879Y006550D01*
X000879Y006709D02*
X001085Y006709D01*
X001090Y006867D02*
X000879Y006867D01*
D28*
X010011Y005875D03*
X014272Y005173D03*
M02*
